%FSLAX44Y44*%
%OFA0.0000B0.0000*%
%SFA1B1*%
%MOMM*%
%ADD24C,0.1000X0.0000X0.0000*%
%ADD28C,1.1430X0.0000X0.0000*%
%ADD29C,1.3970X0.0000X0.0000*%
%LNBack*%
%LPD*%
G54D10*
G54D24*
X0Y390000D2*
X0Y0D1*
X1140000Y390000D2*
X0Y390000D1*
X1140000Y0D2*
X1140000Y390000D1*
X0Y0D2*
X1140000Y0D1*
G54D28*
X110489Y135973D3*
X870320Y267475D3*
X760611Y194841D3*
X201547Y263856D3*
X1000279Y178416D3*
X699528Y257822D3*
X803800Y269800D3*
X978200Y273900D3*
X182994Y300501D3*
X62511Y113300D3*
X362689Y113097D3*
X863189Y76100D3*
X563011Y76303D3*
X859649Y194423D3*
X559471Y194626D3*
G54D29*
X832500Y210300D3*
X832500Y261100D3*
X926800Y241800D3*
X977600Y241800D3*
X134200Y174765D3*
X134200Y225565D3*
X540700Y211600D3*
X489900Y211600D3*
X630772Y106277D3*
X630772Y157077D3*
X337200Y122700D3*
X337200Y173500D3*
X614341Y290294D3*
X614341Y239494D3*
X955800Y215900D3*
X905000Y215900D3*
X136300Y267600D3*
X85500Y267600D3*
X390830Y249590D3*
X390830Y198790D3*
X854163Y97131D3*
X854163Y147931D3*
X307058Y122794D3*
X307058Y173594D3*
M02*
