%FSLAX44Y44*%
%OFA0.0000B0.0000*%
%SFA1B1*%
%MOMM*%
%AMFRECTNOHOLE10*
21,1,0.6908,2.9998,0.0000,0.0000,0*
%
%AMFRECTNOHOLE11*
21,1,2.9998,0.6908,0.0000,0.0000,0*
%
%AMFRECTNOHOLE12*
21,1,0.5994,3.4010,0.0000,0.0000,0*
%
%AMFRECTNOHOLE13*
21,1,3.4010,0.5994,0.0000,0.0000,0*
%
%AMFRECTNOHOLE14*
21,1,5.1004,1.6002,0.0000,0.0000,0*
%
%AMFRECTNOHOLE15*
21,1,1.0008,4.6000,0.0000,0.0000,0*
%
%AMFRECTNOHOLE16*
21,1,5.1004,2.6010,0.0000,0.0000,0*
%
%AMFRECTNOHOLE17*
21,1,1.0008,5.6008,0.0000,0.0000,0*
%
%AMFRECTNOHOLE18*
21,1,5.6998,4.6000,0.0000,0.0000,0*
%
%AMFRECTNOHOLE19*
21,1,4.6000,5.6998,0.0000,0.0000,0*
%
%AMFRECTNOHOLE20*
21,1,5.6794,2.5502,0.0000,0.0000,0*
%
%AMFRECTNOHOLE21*
21,1,3.7618,1.2700,0.0000,0.0000,0*
%
%AMFRECTNOHOLE22*
21,1,2.5502,5.6794,0.0000,0.0000,0*
%
%AMFRECTNOHOLE23*
21,1,1.2700,3.7618,0.0000,0.0000,0*
%
%ADD10FRECTNOHOLE10*%
%ADD11FRECTNOHOLE11*%
%ADD12FRECTNOHOLE12*%
%ADD13FRECTNOHOLE13*%
%ADD14FRECTNOHOLE14*%
%ADD15FRECTNOHOLE15*%
%ADD16FRECTNOHOLE16*%
%ADD17FRECTNOHOLE17*%
%ADD18FRECTNOHOLE18*%
%ADD19FRECTNOHOLE19*%
%ADD20FRECTNOHOLE20*%
%ADD21FRECTNOHOLE21*%
%ADD22FRECTNOHOLE22*%
%ADD23FRECTNOHOLE23*%
%ADD24C,0.1000X0.0000X0.0000*%
%ADD25C,0.2540X0.0000X0.0000*%
%ADD26C,0.0000X0.0000X0.0000*%
%ADD27C,0.5994X0.0000X0.0000*%
%ADD28C,1.0000X0.0000X0.0000*%
%ADD29C,1.1430X0.0000X0.0000*%
%ADD30C,1.3970X0.0000X0.0000*%
%LNFront0*%
%LPD*%
G36*
X4320Y4320D2*
X1135680Y4320D1*
X1135680Y385680D1*
X4320Y385680D1*
X4320Y4320D1*
X4320Y4320D1*
G37*
%LNFront1*%
%LPC*%
G36*
X197434Y247175D2*
X195888Y247316D1*
X188325Y243746D1*
X188324Y228413D1*
X188322Y226161D1*
X186603Y222021D1*
X184980Y220400D1*
X186614Y218763D1*
X188326Y214619D1*
X188325Y202354D1*
X189042Y202354D1*
X195022Y199877D1*
X195218Y199681D1*
X216101Y190211D1*
X216102Y223743D1*
X216104Y225995D1*
X217823Y230135D1*
X220996Y233303D1*
X225140Y235015D1*
X284370Y235013D1*
X286622Y235011D1*
X290762Y233292D1*
X293930Y230119D1*
X295642Y225975D1*
X295641Y201097D1*
X297213Y200024D1*
X309179Y191849D1*
X309461Y191849D1*
X314104Y190605D1*
X315433Y189838D1*
X328915Y189796D1*
X330154Y190511D1*
X334797Y191755D1*
X339603Y191755D1*
X344246Y190511D1*
X348409Y188108D1*
X348555Y187962D1*
X386902Y180944D1*
X383784Y181779D1*
X379621Y184182D1*
X376222Y187581D1*
X373819Y191744D1*
X372575Y196387D1*
X372575Y201193D1*
X373819Y205836D1*
X376222Y209999D1*
X379621Y213398D1*
X383784Y215801D1*
X388427Y217045D1*
X393233Y217045D1*
X396891Y216065D1*
X473630Y226783D1*
X473630Y234820D1*
X464185Y234820D1*
X460043Y236536D1*
X456873Y239706D1*
X455157Y243848D1*
X455157Y251242D1*
X406580Y220502D1*
X405979Y220123D1*
X404743Y219482D1*
X402917Y218726D1*
X401443Y218115D1*
X398286Y217487D1*
X384968Y217488D1*
X383373Y217487D1*
X380215Y218115D1*
X377555Y219218D1*
X377109Y219402D1*
X376215Y219837D1*
X327151Y247516D1*
X326185Y248061D1*
X324419Y249403D1*
X313420Y260402D1*
X312291Y261530D1*
X310503Y264206D1*
X308357Y269390D1*
X307746Y270864D1*
X307118Y274021D1*
X307118Y302771D1*
X307117Y304366D1*
X307118Y306007D1*
X307745Y307524D1*
X309595Y311987D1*
X309894Y312708D1*
X310504Y314182D1*
X312293Y316859D1*
X324566Y329132D1*
X326689Y330663D1*
X364042Y349386D1*
X364296Y349513D1*
X364838Y349761D1*
X373907Y353518D1*
X374642Y353822D1*
X376165Y354285D1*
X449348Y368949D1*
X451780Y369433D1*
X452560Y369589D1*
X454144Y369745D1*
X474662Y369746D1*
X527134Y369746D1*
X527988Y369392D1*
X988352Y318480D1*
X989483Y318356D1*
X991715Y317785D1*
X998601Y314933D1*
X1000075Y314323D1*
X1002752Y312534D1*
X1015707Y299579D1*
X1016836Y298451D1*
X1018624Y295775D1*
X1021640Y288491D1*
X1021901Y287861D1*
X1022308Y286589D1*
X1044540Y190445D1*
X1044751Y189531D1*
X1044959Y187695D1*
X1044958Y170052D1*
X1044958Y169455D1*
X1044871Y168265D1*
X1034409Y97477D1*
X1034264Y96493D1*
X1033726Y94547D1*
X1031808Y89919D1*
X1031231Y88524D1*
X1029565Y85973D1*
X1006407Y61855D1*
X1006176Y61619D1*
X995956Y51399D1*
X994828Y50270D1*
X992152Y48482D1*
X986968Y46336D1*
X986022Y45945D1*
X984075Y45410D1*
X939050Y38865D1*
X938460Y38779D1*
X937298Y38696D1*
X865461Y38696D1*
X863866Y38695D1*
X862225Y38696D1*
X860708Y39323D1*
X856245Y41173D1*
X855524Y41472D1*
X854050Y42082D1*
X851373Y43871D1*
X839805Y55439D1*
X839362Y55919D1*
X836559Y59197D1*
X835912Y59953D1*
X834798Y61637D1*
X824256Y82835D1*
X823791Y83856D1*
X823299Y85044D1*
X822688Y86518D1*
X822060Y89675D1*
X822061Y102993D1*
X822062Y104388D1*
X822530Y107109D1*
X835976Y145274D1*
X835908Y145528D1*
X835908Y146788D1*
X643161Y92849D1*
X641981Y91669D1*
X637818Y89266D1*
X633175Y88022D1*
X629722Y88022D1*
X574182Y63454D1*
X572632Y61904D1*
X566390Y59318D1*
X559632Y59318D1*
X553390Y61904D1*
X548612Y66682D1*
X546026Y72924D1*
X546026Y74443D1*
X540815Y86127D1*
X499375Y86129D1*
X499374Y67389D1*
X499372Y65137D1*
X497653Y60997D1*
X494480Y57829D1*
X490336Y56117D1*
X478096Y56119D1*
X475844Y56121D1*
X471704Y57840D1*
X468536Y61013D1*
X466824Y65157D1*
X466825Y86127D1*
X423079Y86129D1*
X420827Y86131D1*
X416687Y87850D1*
X413519Y91023D1*
X411807Y95167D1*
X411807Y96827D1*
X367794Y96827D1*
X366068Y96112D1*
X359310Y96112D1*
X353068Y98698D1*
X352045Y99721D1*
X339506Y104445D1*
X334797Y104445D1*
X330154Y105689D1*
X325991Y108092D1*
X322592Y111491D1*
X322102Y112340D1*
X321666Y111585D1*
X318267Y108186D1*
X314104Y105783D1*
X309461Y104539D1*
X304655Y104539D1*
X300012Y105783D1*
X295849Y108186D1*
X295417Y108618D1*
X134155Y142578D1*
X129595Y141684D1*
X127474Y135411D1*
X127474Y132594D1*
X124888Y126352D1*
X120110Y121574D1*
X113868Y118988D1*
X112627Y118988D1*
X73933Y100702D1*
X72132Y98901D1*
X65890Y96315D1*
X59132Y96315D1*
X52890Y98901D1*
X48112Y103679D1*
X45526Y109921D1*
X45526Y116679D1*
X48112Y122921D1*
X52890Y127699D1*
X59132Y130285D1*
X60373Y130285D1*
X83508Y141218D1*
X74638Y141218D1*
X72386Y141220D1*
X68246Y142939D1*
X65078Y146112D1*
X63366Y150256D1*
X63368Y209282D1*
X63370Y211534D1*
X65089Y215674D1*
X68262Y218842D1*
X69767Y219464D1*
X69768Y230006D1*
X69673Y230045D1*
X66997Y231833D1*
X65869Y232962D1*
X59007Y239824D1*
X56750Y244000D1*
X56265Y246324D1*
X53741Y258413D1*
X53606Y259144D1*
X49130Y286858D1*
X48619Y288092D1*
X48619Y301894D1*
X48618Y306247D1*
X49246Y309405D1*
X50467Y312353D1*
X52255Y315029D1*
X53384Y316157D1*
X60699Y323475D1*
X66238Y325934D1*
X69279Y326085D1*
X176593Y331314D1*
X177385Y331333D1*
X190206Y331333D1*
X193363Y330704D1*
X194836Y330092D1*
X196289Y329490D1*
X197668Y328754D1*
X198331Y328314D1*
X223716Y311440D1*
X225140Y312028D1*
X284370Y312026D1*
X286622Y312024D1*
X290762Y310305D1*
X293930Y307132D1*
X295642Y302988D1*
X295640Y256998D1*
X295640Y252514D1*
X293924Y248372D1*
X290754Y245202D1*
X286612Y243486D1*
X227372Y243486D1*
X225120Y243488D1*
X220980Y245207D1*
X217812Y248380D1*
X216100Y252524D1*
X216100Y254607D1*
X215946Y254235D1*
X211168Y249457D1*
X204926Y246871D1*
X202992Y246871D1*
X202488Y246714D1*
X200767Y246871D1*
X198168Y246871D1*
X197434Y247175D1*
G37*
G36*
X44441Y72590D2*
X45220Y74471D1*
X46659Y75910D1*
X48540Y76689D1*
X381426Y76689D1*
X383307Y75910D1*
X384746Y74471D1*
X385525Y72590D1*
X385525Y29104D1*
X384746Y27223D1*
X383307Y25784D1*
X381426Y25005D1*
X48540Y25005D1*
X46659Y25784D1*
X45220Y27223D1*
X44441Y29104D1*
X44441Y72590D1*
G37*
%LNFront2*%
%LPD*%
G36*
X662733Y165248D2*
X662875Y164533D1*
X662874Y151215D1*
X662875Y149620D1*
X662247Y146462D1*
X661144Y143802D1*
X660534Y142328D1*
X658746Y139651D1*
X649327Y130232D1*
X648199Y129103D1*
X645523Y127315D1*
X645414Y127270D1*
X846178Y183453D1*
X831486Y192045D1*
X830097Y192045D1*
X825454Y193289D1*
X823499Y194418D1*
X791382Y195860D1*
X790586Y195860D1*
X791814Y192895D1*
X791814Y186423D1*
X789337Y180443D1*
X788535Y179641D1*
X788391Y179394D1*
X787123Y177750D1*
X786379Y177006D1*
X777324Y167949D1*
X774648Y166160D1*
X773174Y165549D1*
X770973Y164636D1*
X767815Y164008D1*
X766220Y164009D1*
X755002Y164009D1*
X754791Y164010D1*
X664000Y165186D1*
X663104Y165223D1*
X662733Y165248D1*
X662733Y165248D1*
G37*
%LNFront3*%
%LPD*%
G36*
X630050Y299595D2*
X632824Y295067D1*
X650083Y283475D1*
X651304Y283981D1*
X657380Y283981D1*
X657380Y285382D1*
X657167Y286450D1*
X657380Y287524D1*
X657380Y289633D1*
X659552Y294877D1*
X663565Y298890D1*
X668809Y301062D1*
X698211Y301062D1*
X564073Y317977D1*
X564920Y317130D1*
X566080Y315969D1*
X566709Y314453D1*
X566748Y314359D1*
X589440Y314358D1*
X591692Y314356D1*
X595832Y312637D1*
X599000Y309464D1*
X600198Y306564D1*
X606011Y306564D1*
X607295Y307305D1*
X611938Y308549D1*
X616744Y308549D1*
X621387Y307305D1*
X625550Y304902D1*
X627612Y302840D1*
X628424Y302250D1*
X628775Y301677D1*
X628949Y301503D1*
X630050Y299595D1*
X630050Y299595D1*
G37*
%LNFront4*%
%LPD*%
G36*
X473213Y140026D2*
X423079Y140028D1*
X420827Y140030D1*
X416687Y141749D1*
X416178Y142183D1*
X414786Y142760D1*
X342431Y156003D1*
X339603Y155245D1*
X334797Y155245D1*
X330154Y156489D1*
X328825Y157256D1*
X315343Y157298D1*
X314104Y156583D1*
X312164Y156063D1*
X318148Y154033D1*
X319145Y153658D1*
X320333Y153166D1*
X321068Y152862D1*
X322472Y152112D1*
X339166Y140955D1*
X339603Y140955D1*
X344246Y139711D1*
X348409Y137308D1*
X350727Y134990D1*
X363754Y130082D1*
X366068Y130082D1*
X367794Y129367D1*
X413349Y129367D1*
X413525Y129793D1*
X416695Y132963D1*
X420837Y134679D1*
X468872Y134679D1*
X469797Y136613D1*
X471765Y138579D1*
X473213Y140026D1*
X473213Y140026D1*
G37*
%LNFront5*%
%LPD*%
G36*
X558291Y130946D2*
X556509Y129166D1*
X553568Y127638D1*
X554393Y125641D1*
X554392Y120707D1*
X554487Y120668D1*
X557163Y118880D1*
X558291Y117751D1*
X564532Y111508D1*
X566225Y109044D1*
X566827Y107691D1*
X571263Y97744D1*
X616378Y117700D1*
X619563Y120885D1*
X623726Y123288D1*
X628369Y124532D1*
X633175Y124532D1*
X634430Y124196D1*
X637210Y124974D1*
X624910Y124975D1*
X623687Y124974D1*
X621240Y125346D1*
X567441Y142174D1*
X565309Y137967D1*
X558291Y130946D1*
X558291Y130946D1*
G37*
%LNFront6*%
%LPD*%
G36*
X712206Y213742D2*
X713050Y214941D1*
X714068Y215586D1*
X715456Y217054D1*
X728326Y262593D1*
X729952Y265364D1*
X731088Y266500D1*
X732320Y267734D1*
X733800Y269215D1*
X733800Y272528D1*
X708408Y272528D1*
X709149Y272221D1*
X713927Y267443D1*
X716513Y261201D1*
X716513Y254443D1*
X713927Y248201D1*
X709149Y243423D1*
X702907Y240837D1*
X696149Y240837D1*
X695299Y241189D1*
X695031Y241199D1*
X692732Y242253D1*
X690724Y243085D1*
X690724Y242713D1*
X690722Y240461D1*
X689003Y236321D1*
X688380Y235699D1*
X690203Y231301D1*
X690202Y230188D1*
X690726Y228919D1*
X690725Y206966D1*
X710527Y212207D1*
X712206Y213742D1*
X712206Y213742D1*
G37*
%LNFront7*%
%LPD*%
G36*
X882105Y204502D2*
X881860Y204917D1*
X881434Y205781D1*
X863783Y250021D1*
X862872Y247825D1*
X862262Y246351D1*
X860474Y243674D1*
X850492Y233692D1*
X849262Y232682D1*
X840459Y226784D1*
X843709Y224908D1*
X847108Y221509D1*
X847896Y220144D1*
X862834Y211408D1*
X863028Y211408D1*
X869270Y208822D1*
X874048Y204044D1*
X876634Y197802D1*
X876634Y191044D1*
X876310Y190262D1*
X889129Y191886D1*
X889482Y192032D1*
X882105Y204502D1*
X882105Y204502D1*
G37*
%LNFront8*%
%LPD*%
G36*
X867814Y284460D2*
X878752Y290038D1*
X879461Y290400D1*
X880969Y290990D1*
X897917Y295744D1*
X811080Y305347D1*
X844397Y292041D1*
X844587Y291964D1*
X845775Y291472D1*
X847249Y290862D1*
X849926Y289074D1*
X858913Y280088D1*
X860699Y281874D1*
X866941Y284460D1*
X867814Y284460D1*
X867814Y284460D1*
G37*
%LNFront9*%
%LPD*%
G36*
X115945Y173939D2*
X115945Y177168D1*
X117189Y181811D1*
X119592Y185974D1*
X122991Y189373D1*
X127154Y191776D1*
X131797Y193020D1*
X136603Y193020D1*
X139875Y192143D1*
X139876Y196990D1*
X123989Y201950D1*
X121393Y203523D1*
X112793Y212123D1*
X112002Y213088D1*
X111662Y213599D1*
X105009Y223584D1*
X105009Y219463D1*
X106532Y218831D1*
X109700Y215658D1*
X111412Y211514D1*
X111411Y175800D1*
X115945Y173939D1*
X115945Y173939D1*
G37*
%LNFront10*%
%LPD*%
G36*
X924033Y214410D2*
X926482Y211180D1*
X927437Y210225D1*
X936608Y210224D1*
X938362Y210224D1*
X938070Y211537D1*
X937545Y213497D1*
X937545Y213896D1*
X937440Y214368D1*
X937545Y214967D1*
X937545Y218303D1*
X938789Y222946D1*
X941192Y227109D1*
X944591Y230508D1*
X948754Y232911D1*
X953397Y234155D1*
X958203Y234155D1*
X961435Y233289D1*
X960589Y234754D1*
X959345Y239397D1*
X959345Y244203D1*
X960589Y248846D1*
X960928Y249433D1*
X943472Y249433D1*
X943811Y248846D1*
X943916Y248452D1*
X944147Y248009D1*
X944201Y247389D1*
X945055Y244203D1*
X945055Y239397D1*
X943811Y234754D1*
X941408Y230591D1*
X938009Y227192D1*
X933846Y224789D1*
X929203Y223545D1*
X924397Y223545D1*
X921182Y224406D1*
X921236Y224287D1*
X922027Y222885D1*
X922204Y222633D1*
X922401Y221747D1*
X922777Y220927D1*
X922813Y219953D1*
X923255Y218303D1*
X923255Y217907D1*
X924033Y214410D1*
X924033Y214410D1*
G37*
%LNFront11*%
%LPD*%
G36*
X415543Y175702D2*
X416695Y176854D1*
X420837Y178570D1*
X466825Y178570D1*
X466826Y192976D1*
X401457Y183846D1*
X397876Y181779D1*
X393233Y180535D1*
X389137Y180535D1*
X415543Y175702D1*
X415543Y175702D1*
G37*
%LNFront12*%
%LPD*%
G36*
X793393Y256187D2*
X792916Y256460D1*
X771497Y258401D1*
X791320Y233031D1*
X815522Y249246D1*
X803748Y252815D1*
X800421Y252815D1*
X798665Y253543D1*
X797820Y253651D1*
X796295Y254525D1*
X794179Y255401D1*
X793393Y256187D1*
X793393Y256187D1*
G37*
%LNFront13*%
%LPD*%
G36*
X582239Y234818D2*
X563657Y234819D1*
X596875Y206866D1*
X585123Y223908D1*
X584295Y225431D1*
X583969Y226219D1*
X582866Y228879D1*
X582238Y232037D1*
X582239Y233632D1*
X582239Y234818D1*
X582239Y234818D1*
G37*
%LNFront14*%
%LPD*%
G36*
X506170Y219930D2*
X506911Y218646D1*
X508155Y214003D1*
X508155Y209197D1*
X506911Y204554D1*
X504508Y200391D1*
X501109Y196992D1*
X500054Y196383D1*
X499376Y195164D1*
X499375Y178570D1*
X508598Y178570D1*
X508598Y220698D1*
X509770Y223528D1*
X514153Y234818D1*
X506170Y234818D1*
X506170Y219930D1*
X506170Y219930D1*
G37*
%LNFront15*%
%LPD*%
G36*
X127208Y39522D2*
X127208Y62772D1*
X130758Y62772D1*
X130758Y59522D1*
X131258Y60172D1*
X131758Y60722D1*
X132358Y61222D1*
X133008Y61722D1*
X133708Y62122D1*
X134458Y62522D1*
X135208Y62822D1*
X136058Y63072D1*
X136908Y63222D1*
X137808Y63272D1*
X138808Y63222D1*
X139658Y63072D1*
X140508Y62822D1*
X141258Y62522D1*
X141908Y62122D1*
X142558Y61672D1*
X143108Y61172D1*
X143608Y60572D1*
X144058Y59922D1*
X144358Y59222D1*
X144908Y59972D1*
X145558Y60672D1*
X146158Y61272D1*
X146858Y61822D1*
X147558Y62272D1*
X148258Y62622D1*
X149058Y62922D1*
X149858Y63122D1*
X150708Y63222D1*
X151558Y63272D1*
X152858Y63172D1*
X154008Y62922D1*
X155058Y62472D1*
X155958Y61872D1*
X156758Y61172D1*
X157408Y60322D1*
X157958Y59372D1*
X158408Y58272D1*
X158658Y56972D1*
X158758Y55472D1*
X158758Y39522D1*
X154808Y39522D1*
X154808Y54172D1*
X154758Y55422D1*
X154608Y56422D1*
X154408Y57222D1*
X154158Y57872D1*
X153758Y58422D1*
X153308Y58872D1*
X152758Y59272D1*
X152108Y59572D1*
X151408Y59822D1*
X150658Y59872D1*
X149708Y59772D1*
X148858Y59572D1*
X148058Y59172D1*
X147358Y58672D1*
X146708Y58072D1*
X146108Y57372D1*
X145658Y56522D1*
X145258Y55522D1*
X145058Y54372D1*
X144958Y53022D1*
X144958Y39522D1*
X141008Y39522D1*
X141008Y54622D1*
X140958Y55622D1*
X140808Y56472D1*
X140608Y57222D1*
X140308Y57872D1*
X139958Y58422D1*
X139508Y58922D1*
X139008Y59322D1*
X138408Y59622D1*
X137708Y59822D1*
X136908Y59872D1*
X135958Y59772D1*
X135008Y59472D1*
X134208Y59022D1*
X133408Y58472D1*
X132758Y57772D1*
X132208Y56922D1*
X131758Y55922D1*
X131458Y54722D1*
X131208Y53322D1*
X131158Y51572D1*
X131158Y39522D1*
X127208Y39522D1*
G37*
%LNFront16*%
%LPD*%
G36*
X196158Y37622D2*
X199958Y37122D1*
X200008Y36772D1*
X200108Y36422D1*
X200158Y36122D1*
X200258Y35822D1*
X200408Y35572D1*
X200558Y35272D1*
X200708Y35072D1*
X200858Y34822D1*
X201058Y34672D1*
X201258Y34472D1*
X201558Y34272D1*
X201908Y34072D1*
X202258Y33922D1*
X202608Y33772D1*
X203008Y33622D1*
X203458Y33522D1*
X203858Y33472D1*
X204308Y33422D1*
X204808Y33372D1*
X205308Y33372D1*
X206358Y33422D1*
X207258Y33572D1*
X208058Y33822D1*
X208758Y34172D1*
X209408Y34572D1*
X210008Y35022D1*
X210508Y35522D1*
X210958Y36122D1*
X211308Y36772D1*
X211558Y37522D1*
X211608Y37772D1*
X211658Y38122D1*
X211708Y38472D1*
X211758Y38922D1*
X211808Y39372D1*
X211808Y39922D1*
X211808Y40522D1*
X211858Y41122D1*
X211858Y41822D1*
X211858Y42572D1*
X209508Y44322D1*
X210208Y45072D1*
X210858Y45972D1*
X211408Y47072D1*
X211858Y48322D1*
X212108Y49722D1*
X212208Y51422D1*
X212108Y53022D1*
X211858Y54422D1*
X211408Y55672D1*
X210858Y56722D1*
X210158Y57672D1*
X209408Y58472D1*
X208608Y59122D1*
X207708Y59622D1*
X206758Y59922D1*
X205708Y60022D1*
X204708Y59922D1*
X203758Y59622D1*
X202908Y59122D1*
X202058Y58472D1*
X201358Y57672D1*
X200708Y56772D1*
X200158Y55722D1*
X199758Y54522D1*
X199508Y53172D1*
X199408Y51572D1*
X199408Y51572D1*
X199408Y51572D1*
X199508Y49872D1*
X199758Y48372D1*
X200158Y47122D1*
X200708Y46022D1*
X201358Y45072D1*
X202058Y44322D1*
X202858Y43672D1*
X203758Y43172D1*
X204708Y42872D1*
X205758Y42772D1*
X206808Y42872D1*
X207808Y43172D1*
X208658Y43672D1*
X209508Y44322D1*
X211858Y42572D1*
X211308Y41972D1*
X210758Y41472D1*
X210158Y41022D1*
X209558Y40622D1*
X208958Y40272D1*
X208258Y40022D1*
X207608Y39772D1*
X206908Y39622D1*
X206158Y39572D1*
X205408Y39522D1*
X203608Y39672D1*
X201958Y40172D1*
X200558Y40972D1*
X199308Y41972D1*
X198208Y43222D1*
X197258Y44572D1*
X196458Y46072D1*
X195858Y47672D1*
X195508Y49372D1*
X195358Y51272D1*
X195508Y53222D1*
X195908Y55022D1*
X196508Y56722D1*
X197258Y58272D1*
X198208Y59672D1*
X199308Y60872D1*
X200608Y61822D1*
X202058Y62572D1*
X203658Y63072D1*
X205408Y63272D1*
X206208Y63222D1*
X207008Y63122D1*
X207758Y62972D1*
X208458Y62722D1*
X209158Y62422D1*
X209808Y62072D1*
X210458Y61622D1*
X211058Y61122D1*
X211658Y60572D1*
X212208Y59922D1*
X212208Y62772D1*
X215808Y62772D1*
X215808Y42672D1*
X215658Y39822D1*
X215308Y37572D1*
X214758Y35822D1*
X214008Y34372D1*
X213058Y33172D1*
X211908Y32172D1*
X210558Y31372D1*
X209008Y30722D1*
X207308Y30272D1*
X205308Y30122D1*
X203758Y30222D1*
X202308Y30472D1*
X201008Y30922D1*
X199858Y31472D1*
X198808Y32172D1*
X197908Y32972D1*
X197158Y33922D1*
X196558Y34972D1*
X196258Y36222D1*
X196158Y37622D1*
X196158Y37622D1*
G37*
%LNFront17*%
%LPD*%
G36*
X102308Y30622D2*
X102308Y62772D1*
X105908Y62772D1*
X105908Y59722D1*
X107958Y57622D1*
X107308Y56622D1*
X106708Y55472D1*
X106308Y54172D1*
X106008Y52672D1*
X105908Y51022D1*
X105908Y51022D1*
X105908Y51022D1*
X106008Y49322D1*
X106258Y47872D1*
X106658Y46622D1*
X107208Y45572D1*
X107858Y44622D1*
X108558Y43822D1*
X109358Y43172D1*
X110208Y42672D1*
X111108Y42372D1*
X112108Y42272D1*
X113108Y42372D1*
X114058Y42722D1*
X114958Y43222D1*
X115758Y43872D1*
X116458Y44722D1*
X117158Y45672D1*
X117708Y46772D1*
X118108Y48072D1*
X118358Y49572D1*
X118458Y51322D1*
X118358Y52972D1*
X118108Y54422D1*
X117708Y55722D1*
X117158Y56822D1*
X116508Y57772D1*
X115808Y58572D1*
X115008Y59222D1*
X114158Y59722D1*
X113258Y60072D1*
X112258Y60172D1*
X111308Y60072D1*
X110358Y59722D1*
X109508Y59172D1*
X108708Y58472D1*
X107958Y57622D1*
X105908Y59722D1*
X106408Y60372D1*
X107008Y60972D1*
X107558Y61472D1*
X108158Y61922D1*
X108808Y62272D1*
X109508Y62622D1*
X110208Y62872D1*
X110958Y63122D1*
X111808Y63222D1*
X112658Y63272D1*
X114358Y63072D1*
X115908Y62572D1*
X117308Y61822D1*
X118608Y60872D1*
X119708Y59672D1*
X120658Y58322D1*
X121408Y56772D1*
X122008Y55072D1*
X122358Y53222D1*
X122508Y51322D1*
X122358Y49272D1*
X121908Y47372D1*
X121308Y45622D1*
X120458Y44022D1*
X119458Y42622D1*
X118258Y41422D1*
X116908Y40422D1*
X115458Y39672D1*
X113958Y39222D1*
X112358Y39022D1*
X111608Y39072D1*
X110858Y39172D1*
X110158Y39372D1*
X109508Y39622D1*
X108858Y39922D1*
X108258Y40272D1*
X107708Y40622D1*
X107158Y41022D1*
X106658Y41472D1*
X106258Y41972D1*
X106258Y30622D1*
X102308Y30622D1*
G37*
%LNFront18*%
%LPD*%
G36*
X77408Y30622D2*
X77408Y62772D1*
X81008Y62772D1*
X81008Y59722D1*
X83058Y57622D1*
X82408Y56622D1*
X81808Y55472D1*
X81408Y54172D1*
X81108Y52672D1*
X81008Y51022D1*
X81008Y51022D1*
X81008Y51022D1*
X81108Y49322D1*
X81358Y47872D1*
X81758Y46622D1*
X82308Y45572D1*
X82958Y44622D1*
X83658Y43822D1*
X84458Y43172D1*
X85308Y42672D1*
X86208Y42372D1*
X87208Y42272D1*
X88208Y42372D1*
X89158Y42722D1*
X90058Y43222D1*
X90858Y43872D1*
X91558Y44722D1*
X92258Y45672D1*
X92808Y46772D1*
X93208Y48072D1*
X93458Y49572D1*
X93558Y51322D1*
X93458Y52972D1*
X93208Y54422D1*
X92808Y55722D1*
X92258Y56822D1*
X91608Y57772D1*
X90908Y58572D1*
X90108Y59222D1*
X89258Y59722D1*
X88358Y60072D1*
X87358Y60172D1*
X86408Y60072D1*
X85458Y59722D1*
X84608Y59172D1*
X83808Y58472D1*
X83058Y57622D1*
X81008Y59722D1*
X81508Y60372D1*
X82108Y60972D1*
X82658Y61472D1*
X83258Y61922D1*
X83908Y62272D1*
X84608Y62622D1*
X85308Y62872D1*
X86058Y63122D1*
X86908Y63222D1*
X87758Y63272D1*
X89458Y63072D1*
X91008Y62572D1*
X92408Y61822D1*
X93708Y60872D1*
X94808Y59672D1*
X95758Y58322D1*
X96508Y56772D1*
X97108Y55072D1*
X97458Y53222D1*
X97608Y51322D1*
X97458Y49272D1*
X97008Y47372D1*
X96408Y45622D1*
X95558Y44022D1*
X94558Y42622D1*
X93358Y41422D1*
X92008Y40422D1*
X90558Y39672D1*
X89058Y39222D1*
X87458Y39022D1*
X86708Y39072D1*
X85958Y39172D1*
X85258Y39372D1*
X84608Y39622D1*
X83958Y39922D1*
X83358Y40272D1*
X82808Y40622D1*
X82258Y41022D1*
X81758Y41472D1*
X81358Y41972D1*
X81358Y30622D1*
X77408Y30622D1*
G37*
%LNFront19*%
%LPD*%
G36*
X376158Y39522D2*
X376158Y42472D1*
X374358Y44572D1*
X374958Y45472D1*
X375508Y46572D1*
X375908Y47772D1*
X376158Y49172D1*
X376258Y50822D1*
X376158Y52572D1*
X375908Y54122D1*
X375508Y55472D1*
X374958Y56572D1*
X374308Y57572D1*
X373558Y58372D1*
X372758Y59072D1*
X371908Y59572D1*
X370958Y59922D1*
X369908Y60022D1*
X368908Y59922D1*
X367958Y59622D1*
X367108Y59122D1*
X366358Y58472D1*
X365658Y57672D1*
X365008Y56722D1*
X364508Y55622D1*
X364108Y54372D1*
X363858Y52872D1*
X363758Y51122D1*
X363758Y51122D1*
X363758Y51122D1*
X363858Y49472D1*
X364108Y48022D1*
X364558Y46772D1*
X365108Y45672D1*
X365758Y44672D1*
X366508Y43872D1*
X367308Y43222D1*
X368158Y42722D1*
X369058Y42372D1*
X370058Y42272D1*
X371058Y42372D1*
X372008Y42672D1*
X372858Y43172D1*
X373608Y43822D1*
X374358Y44572D1*
X376158Y42472D1*
X375708Y41822D1*
X375208Y41222D1*
X374658Y40722D1*
X374058Y40272D1*
X373458Y39872D1*
X372758Y39572D1*
X372058Y39322D1*
X371308Y39172D1*
X370508Y39072D1*
X369658Y39022D1*
X368058Y39222D1*
X366558Y39722D1*
X365158Y40472D1*
X363858Y41422D1*
X362708Y42572D1*
X361758Y43972D1*
X360908Y45522D1*
X360308Y47222D1*
X359858Y49072D1*
X359708Y51122D1*
X359858Y53122D1*
X360208Y54972D1*
X360808Y56722D1*
X361558Y58322D1*
X362508Y59722D1*
X363608Y60872D1*
X364908Y61872D1*
X366308Y62622D1*
X367808Y63072D1*
X369458Y63272D1*
X370258Y63222D1*
X371058Y63122D1*
X371808Y62872D1*
X372508Y62622D1*
X373158Y62322D1*
X373808Y61972D1*
X374358Y61572D1*
X374908Y61122D1*
X375408Y60622D1*
X375858Y60072D1*
X375858Y71572D1*
X379808Y71572D1*
X379808Y39522D1*
X376158Y39522D1*
G37*
%LNFront20*%
%LPD*%
G36*
X275208Y39522D2*
X271558Y39522D1*
X271558Y71572D1*
X275508Y71572D1*
X275508Y60122D1*
X276008Y60722D1*
X276558Y61272D1*
X277108Y61722D1*
X277708Y62122D1*
X278308Y62472D1*
X278958Y62772D1*
X279658Y62972D1*
X280358Y63122D1*
X281108Y63222D1*
X281858Y63272D1*
X283508Y63072D1*
X285058Y62622D1*
X286508Y61872D1*
X287758Y60922D1*
X288858Y59822D1*
X289808Y58472D1*
X290558Y56922D1*
X291108Y55272D1*
X291508Y53422D1*
X291658Y51472D1*
X291508Y49222D1*
X291108Y47272D1*
X290408Y45472D1*
X289558Y43922D1*
X288508Y42572D1*
X287358Y41372D1*
X286108Y40422D1*
X284708Y39672D1*
X283258Y39172D1*
X281658Y39022D1*
X280858Y39072D1*
X280058Y39172D1*
X279358Y39322D1*
X278658Y39572D1*
X278008Y39872D1*
X277358Y40272D1*
X276758Y40722D1*
X276208Y41222D1*
X275708Y41822D1*
X275208Y42472D1*
X277058Y44222D1*
X277458Y43772D1*
X277908Y43372D1*
X278408Y43022D1*
X278958Y42772D1*
X279458Y42522D1*
X280058Y42372D1*
X280658Y42322D1*
X281258Y42272D1*
X282258Y42372D1*
X283208Y42722D1*
X284058Y43222D1*
X284858Y43922D1*
X285608Y44722D1*
X286258Y45672D1*
X286808Y46772D1*
X287258Y48072D1*
X287508Y49522D1*
X287608Y51172D1*
X287508Y52872D1*
X287258Y54322D1*
X286858Y55622D1*
X286308Y56722D1*
X285708Y57672D1*
X284958Y58472D1*
X284208Y59122D1*
X283358Y59622D1*
X282458Y59922D1*
X281458Y60022D1*
X280458Y59922D1*
X279508Y59572D1*
X278658Y59072D1*
X277858Y58372D1*
X277108Y57572D1*
X276458Y56622D1*
X275908Y55522D1*
X275458Y54322D1*
X275208Y52922D1*
X275108Y51322D1*
X275108Y51322D1*
X275108Y51322D1*
X275108Y50522D1*
X275158Y49722D1*
X275208Y49022D1*
X275308Y48322D1*
X275408Y47722D1*
X275508Y47122D1*
X275658Y46622D1*
X275858Y46122D1*
X276058Y45722D1*
X276258Y45322D1*
X276608Y44722D1*
X277058Y44222D1*
X275208Y42472D1*
X275208Y39522D1*
G37*
%LNFront21*%
%LPD*%
G36*
X52508Y39522D2*
X52508Y71572D1*
X56458Y71572D1*
X56458Y60072D1*
X57008Y60672D1*
X57608Y61222D1*
X58258Y61722D1*
X58908Y62122D1*
X59558Y62472D1*
X60258Y62772D1*
X61008Y62972D1*
X61758Y63122D1*
X62558Y63222D1*
X63358Y63272D1*
X64858Y63172D1*
X66158Y62822D1*
X67358Y62322D1*
X68408Y61672D1*
X69308Y60872D1*
X70008Y59972D1*
X70608Y58872D1*
X71008Y57622D1*
X71258Y56072D1*
X71358Y54222D1*
X71358Y39522D1*
X67408Y39522D1*
X67408Y54222D1*
X67358Y55322D1*
X67158Y56272D1*
X66908Y57072D1*
X66508Y57772D1*
X66058Y58372D1*
X65508Y58872D1*
X64908Y59322D1*
X64208Y59622D1*
X63458Y59822D1*
X62558Y59872D1*
X61558Y59772D1*
X60558Y59472D1*
X59658Y59022D1*
X58858Y58472D1*
X58108Y57772D1*
X57558Y56972D1*
X57058Y56072D1*
X56758Y54972D1*
X56508Y53722D1*
X56458Y52222D1*
X56458Y39522D1*
X52508Y39522D1*
G37*
%LNFront22*%
%LPD*%
G36*
X221758Y39522D2*
X221758Y71572D1*
X225708Y71572D1*
X225708Y60072D1*
X226258Y60672D1*
X226858Y61222D1*
X227508Y61722D1*
X228158Y62122D1*
X228808Y62472D1*
X229508Y62772D1*
X230258Y62972D1*
X231008Y63122D1*
X231808Y63222D1*
X232608Y63272D1*
X234108Y63172D1*
X235408Y62822D1*
X236608Y62322D1*
X237658Y61672D1*
X238558Y60872D1*
X239258Y59972D1*
X239858Y58872D1*
X240258Y57622D1*
X240508Y56072D1*
X240608Y54222D1*
X240608Y39522D1*
X236658Y39522D1*
X236658Y54222D1*
X236608Y55322D1*
X236408Y56272D1*
X236158Y57072D1*
X235758Y57772D1*
X235308Y58372D1*
X234758Y58872D1*
X234158Y59322D1*
X233458Y59622D1*
X232708Y59822D1*
X231808Y59872D1*
X230808Y59772D1*
X229808Y59472D1*
X228908Y59022D1*
X228108Y58472D1*
X227358Y57772D1*
X226808Y56972D1*
X226308Y56072D1*
X226008Y54972D1*
X225758Y53722D1*
X225708Y52222D1*
X225708Y39522D1*
X221758Y39522D1*
G37*
%LNFront23*%
%LPD*%
G36*
X938350Y110231D2*
X938350Y161774D1*
X929879Y161775D1*
X929877Y114432D1*
X931734Y114430D1*
X935874Y112711D1*
X938350Y110231D1*
X938350Y110231D1*
G37*
%LNFront24*%
%LPD*%
G36*
X295008Y51172D2*
X295058Y52422D1*
X295158Y53572D1*
X295308Y54722D1*
X295608Y55772D1*
X295908Y56772D1*
X296308Y57672D1*
X296758Y58522D1*
X297308Y59322D1*
X297908Y60022D1*
X298608Y60672D1*
X299208Y61172D1*
X299858Y61622D1*
X300508Y62022D1*
X301208Y62322D1*
X301908Y62622D1*
X302658Y62872D1*
X303408Y63022D1*
X304208Y63172D1*
X305058Y63222D1*
X305908Y63272D1*
X307758Y63122D1*
X309408Y62672D1*
X310908Y61922D1*
X312258Y61022D1*
X313508Y59872D1*
X314558Y58572D1*
X315458Y57072D1*
X316158Y55422D1*
X316608Y53572D1*
X316758Y51472D1*
X316608Y49022D1*
X316158Y46922D1*
X315508Y45172D1*
X314608Y43672D1*
X313558Y42372D1*
X312308Y41222D1*
X310858Y40322D1*
X309308Y39622D1*
X307658Y39172D1*
X305908Y39022D1*
X305908Y42272D1*
X307008Y42372D1*
X308058Y42722D1*
X309008Y43222D1*
X309858Y43872D1*
X310608Y44722D1*
X311308Y45672D1*
X311908Y46822D1*
X312308Y48072D1*
X312608Y49572D1*
X312708Y51272D1*
X312608Y52922D1*
X312308Y54322D1*
X311908Y55572D1*
X311308Y56672D1*
X310608Y57622D1*
X309858Y58422D1*
X308958Y59072D1*
X308008Y59572D1*
X307008Y59922D1*
X305908Y60022D1*
X304758Y59922D1*
X303708Y59572D1*
X302808Y59072D1*
X301908Y58422D1*
X301158Y57622D1*
X300458Y56622D1*
X299858Y55522D1*
X299458Y54272D1*
X299158Y52822D1*
X299058Y51172D1*
X299058Y51172D1*
X299058Y51172D1*
X299158Y49472D1*
X299458Y48022D1*
X299858Y46772D1*
X300458Y45672D1*
X301158Y44672D1*
X301908Y43872D1*
X302808Y43222D1*
X303708Y42722D1*
X304758Y42372D1*
X305908Y42272D1*
X305908Y39022D1*
X304058Y39172D1*
X302358Y39622D1*
X300858Y40322D1*
X299458Y41272D1*
X298258Y42422D1*
X297158Y43722D1*
X296258Y45272D1*
X295608Y46972D1*
X295158Y48922D1*
X295008Y51172D1*
X295008Y51172D1*
G37*
%LNFront25*%
%LPD*%
G36*
X336558Y42422D2*
X335708Y41722D1*
X334858Y41122D1*
X334008Y40672D1*
X332958Y43222D1*
X333608Y43622D1*
X334258Y44072D1*
X334808Y44572D1*
X335258Y45172D1*
X335658Y45822D1*
X335758Y46122D1*
X335858Y46422D1*
X335958Y46722D1*
X336058Y47072D1*
X336158Y47472D1*
X336208Y47872D1*
X336258Y48322D1*
X336258Y48772D1*
X336308Y49222D1*
X336308Y49722D1*
X336208Y51172D1*
X336208Y51172D1*
X335758Y50972D1*
X335258Y50822D1*
X334708Y50672D1*
X334108Y50522D1*
X333508Y50372D1*
X332858Y50222D1*
X332158Y50072D1*
X331408Y49922D1*
X330608Y49822D1*
X329758Y49672D1*
X328458Y49472D1*
X327458Y49222D1*
X326658Y48972D1*
X326058Y48672D1*
X325508Y48322D1*
X325058Y47872D1*
X324708Y47422D1*
X324458Y46922D1*
X324258Y46372D1*
X324208Y45772D1*
X324258Y45172D1*
X324458Y44622D1*
X324708Y44122D1*
X325058Y43672D1*
X325508Y43222D1*
X326058Y42872D1*
X326608Y42572D1*
X327308Y42322D1*
X328058Y42172D1*
X328958Y42122D1*
X329858Y42172D1*
X330658Y42322D1*
X331458Y42572D1*
X332208Y42822D1*
X332958Y43222D1*
X334008Y40672D1*
X333158Y40222D1*
X332358Y39872D1*
X331508Y39572D1*
X330658Y39322D1*
X329808Y39172D1*
X328908Y39072D1*
X328008Y39022D1*
X326558Y39122D1*
X325258Y39372D1*
X324108Y39772D1*
X323108Y40372D1*
X322258Y41022D1*
X321508Y41772D1*
X320858Y42622D1*
X320408Y43522D1*
X320108Y44572D1*
X320008Y45672D1*
X320108Y46672D1*
X320358Y47572D1*
X320758Y48422D1*
X321208Y49222D1*
X321808Y49972D1*
X322458Y50572D1*
X323158Y51122D1*
X323958Y51622D1*
X324808Y52022D1*
X325708Y52322D1*
X325958Y52372D1*
X326208Y52422D1*
X326508Y52522D1*
X326808Y52572D1*
X327158Y52622D1*
X327508Y52672D1*
X327908Y52722D1*
X328308Y52822D1*
X328758Y52872D1*
X329208Y52922D1*
X330158Y53022D1*
X331008Y53172D1*
X331858Y53272D1*
X332658Y53422D1*
X333358Y53522D1*
X334058Y53672D1*
X334708Y53822D1*
X335258Y53972D1*
X335808Y54122D1*
X336308Y54272D1*
X336308Y54422D1*
X336308Y54572D1*
X336308Y54722D1*
X336308Y54822D1*
X336308Y54972D1*
X336308Y55022D1*
X336308Y55122D1*
X336308Y55222D1*
X336308Y55272D1*
X336308Y55322D1*
X336308Y55772D1*
X336258Y56222D1*
X336208Y56622D1*
X336158Y57022D1*
X336058Y57372D1*
X335908Y57672D1*
X335758Y57972D1*
X335608Y58222D1*
X335408Y58472D1*
X335208Y58672D1*
X334858Y58922D1*
X334508Y59172D1*
X334158Y59372D1*
X333708Y59522D1*
X333308Y59672D1*
X332808Y59822D1*
X332308Y59922D1*
X331808Y59972D1*
X331258Y60022D1*
X330658Y60022D1*
X329608Y59972D1*
X328708Y59822D1*
X327908Y59622D1*
X327208Y59322D1*
X326608Y58972D1*
X326108Y58522D1*
X325608Y57972D1*
X325208Y57322D1*
X324858Y56522D1*
X324558Y55622D1*
X320708Y56122D1*
X321108Y57522D1*
X321658Y58672D1*
X322308Y59672D1*
X323158Y60572D1*
X324108Y61322D1*
X325208Y61972D1*
X326508Y62522D1*
X327908Y62922D1*
X329508Y63172D1*
X331208Y63272D1*
X332858Y63172D1*
X334308Y62972D1*
X335508Y62622D1*
X336608Y62222D1*
X337508Y61722D1*
X338258Y61172D1*
X338858Y60522D1*
X339358Y59822D1*
X339708Y59022D1*
X340008Y58122D1*
X340058Y57922D1*
X340108Y57672D1*
X340108Y57372D1*
X340158Y57072D1*
X340158Y56722D1*
X340158Y56372D1*
X340208Y55972D1*
X340208Y55522D1*
X340208Y55022D1*
X340208Y54522D1*
X340208Y49272D1*
X340208Y47272D1*
X340258Y45672D1*
X340308Y44372D1*
X340408Y43372D1*
X340508Y42522D1*
X340608Y41822D1*
X340758Y41222D1*
X340908Y40622D1*
X341158Y40072D1*
X341408Y39522D1*
X337358Y39522D1*
X337258Y39772D1*
X337108Y40022D1*
X337008Y40322D1*
X336908Y40572D1*
X336858Y40872D1*
X336758Y41172D1*
X336708Y41472D1*
X336658Y41772D1*
X336608Y42072D1*
X336558Y42422D1*
X336558Y42422D1*
G37*
%LNFront26*%
%LPD*%
G36*
X179303Y171124D2*
X179286Y171117D1*
X171996Y171119D1*
X171203Y170327D1*
X170572Y169696D1*
X169769Y169018D1*
X169026Y168489D1*
X199240Y162126D1*
X180819Y170480D1*
X180475Y170511D1*
X179303Y171124D1*
X179303Y171124D1*
G37*
%LNFront27*%
%LPD*%
G36*
X591722Y168673D2*
X574146Y183464D1*
X572714Y174619D1*
X591722Y168673D1*
X591722Y168673D1*
G37*
%LNFront28*%
%LPD*%
G36*
X255308Y43022D2*
X255808Y39572D1*
X255458Y39522D1*
X255158Y39422D1*
X254858Y39372D1*
X254558Y39322D1*
X254258Y39322D1*
X253958Y39272D1*
X253658Y39272D1*
X253358Y39222D1*
X253058Y39222D1*
X252808Y39222D1*
X251658Y39322D1*
X250708Y39522D1*
X249858Y39872D1*
X249208Y40272D1*
X248608Y40772D1*
X248158Y41422D1*
X247808Y42172D1*
X247558Y43122D1*
X247408Y44472D1*
X247358Y46322D1*
X247358Y59722D1*
X244458Y59722D1*
X244458Y62772D1*
X247358Y62772D1*
X247358Y68522D1*
X251308Y70872D1*
X251308Y62772D1*
X255308Y62772D1*
X255308Y59722D1*
X251308Y59722D1*
X251308Y46122D1*
X251308Y45222D1*
X251408Y44622D1*
X251508Y44172D1*
X251658Y43822D1*
X251858Y43572D1*
X252058Y43322D1*
X252358Y43172D1*
X252658Y43022D1*
X253058Y42922D1*
X253558Y42872D1*
X253708Y42872D1*
X253858Y42872D1*
X254008Y42872D1*
X254158Y42872D1*
X254358Y42922D1*
X254508Y42922D1*
X254708Y42922D1*
X254908Y42972D1*
X255108Y42972D1*
X255308Y43022D1*
X255308Y43022D1*
G37*
%LNFront29*%
%LPD*%
G36*
X346208Y39522D2*
X346208Y62772D1*
X349758Y62772D1*
X349758Y59222D1*
X350308Y60122D1*
X350808Y60872D1*
X351308Y61472D1*
X351758Y61972D1*
X352258Y62372D1*
X352758Y62672D1*
X353208Y62922D1*
X353708Y63122D1*
X354208Y63222D1*
X354758Y63272D1*
X355158Y63272D1*
X355558Y63222D1*
X355958Y63172D1*
X356358Y63072D1*
X356808Y62972D1*
X357208Y62822D1*
X357608Y62672D1*
X358008Y62472D1*
X358408Y62272D1*
X358808Y62022D1*
X357408Y58422D1*
X357108Y58572D1*
X356858Y58722D1*
X356558Y58822D1*
X356258Y58922D1*
X356008Y59022D1*
X355708Y59122D1*
X355408Y59172D1*
X355108Y59172D1*
X354858Y59222D1*
X354558Y59222D1*
X354058Y59172D1*
X353608Y59072D1*
X353158Y58872D1*
X352708Y58672D1*
X352308Y58372D1*
X351958Y58072D1*
X351608Y57672D1*
X351258Y57272D1*
X351008Y56822D1*
X350808Y56272D1*
X350658Y55872D1*
X350558Y55422D1*
X350458Y54972D1*
X350408Y54522D1*
X350308Y54072D1*
X350258Y53622D1*
X350208Y53172D1*
X350158Y52672D1*
X350158Y52172D1*
X350158Y51672D1*
X350158Y39522D1*
X346208Y39522D1*
G37*
%LNFront30*%
%LPD*%
G36*
X642275Y208102D2*
X642097Y208280D1*
X631466Y214025D1*
X642274Y198351D1*
X642275Y208102D1*
X642275Y208102D1*
G37*
%LNFront31*%
%LPD*%
G36*
X102024Y275490D2*
X102511Y274646D1*
X102557Y274474D1*
X102637Y274365D1*
X103179Y272153D1*
X103755Y270003D1*
X103755Y269802D1*
X104198Y267993D1*
X104197Y275056D1*
X104825Y278213D1*
X105436Y279687D1*
X106538Y282351D1*
X107455Y283723D1*
X98040Y283723D1*
X98040Y281553D1*
X99566Y279351D1*
X100108Y278809D1*
X100938Y277372D1*
X101925Y275947D1*
X102024Y275490D1*
X102024Y275490D1*
G37*
%LNFront32*%
%LPD*%
G36*
X176858Y39522D2*
X176858Y71572D1*
X180808Y71572D1*
X180808Y39522D1*
X176858Y39522D1*
G37*
%LNFront33*%
%LPD*%
G36*
X608037Y273084D2*
X607295Y273283D1*
X606011Y274024D1*
X600711Y274024D1*
X600711Y269719D1*
X601066Y269866D1*
X603726Y270969D1*
X606884Y271597D1*
X608479Y271596D1*
X615577Y271597D1*
X612868Y272039D1*
X611938Y272039D1*
X610491Y272427D1*
X608601Y272735D1*
X608037Y273084D1*
X608037Y273084D1*
G37*
%LNFront34*%
%LPD*%
G36*
X186908Y39522D2*
X186908Y62772D1*
X190858Y62772D1*
X190858Y39522D1*
X186908Y39522D1*
G37*
%LNFront35*%
%LPD*%
G36*
X287874Y166996D2*
X286612Y166473D1*
X281484Y166473D1*
X292186Y162842D1*
X291035Y164836D1*
X287874Y166996D1*
X287874Y166996D1*
G37*
%LNFront36*%
%LPD*%
G36*
X762336Y289625D2*
X762338Y289620D1*
X762336Y287883D1*
X768471Y287327D1*
X762336Y289777D1*
X762336Y289625D1*
X762336Y289625D1*
G37*
%LNFront37*%
%LPD*%
G36*
X861337Y119329D2*
X859656Y114558D1*
X861209Y114142D1*
X861337Y114068D1*
X861337Y119329D1*
X861337Y119329D1*
G37*
%LNFront38*%
%LPD*%
G36*
X412741Y262909D2*
X416318Y265172D1*
X413535Y265172D1*
X412741Y262909D1*
X412741Y262909D1*
G37*
%LNFront39*%
%LPD*%
G36*
X541138Y189269D2*
X541138Y183191D1*
X541996Y188493D1*
X541138Y189269D1*
X541138Y189269D1*
G37*
%LNFront40*%
%LPD*%
G36*
X186908Y67072D2*
X186908Y71572D1*
X190858Y71572D1*
X190858Y67072D1*
X186908Y67072D1*
G37*
%LNFront41*%
%LPD*%
G36*
X973342Y210838D2*
X973178Y210225D1*
X974099Y210225D1*
X973629Y211770D1*
X973342Y210838D1*
G37*
%LNFront*%
%LPD*%
G54D10*
X164100Y243412D3*
X154600Y243412D3*
X173600Y243412D3*
X164100Y197388D3*
X173600Y197388D3*
X154600Y197388D3*
X666500Y257712D3*
X657000Y257712D3*
X676000Y257712D3*
X666500Y211688D3*
X676000Y211688D3*
X657000Y211688D3*
G54D11*
X969875Y186000D3*
X969875Y195500D3*
X969875Y176500D3*
X923851Y186000D3*
X923851Y176500D3*
X923851Y195500D3*
G54D12*
X748069Y284482D3*
X748069Y238508D3*
G54D13*
X136715Y297990D3*
X90741Y297990D3*
X952787Y263700D3*
X906813Y263700D3*
G54D14*
X448581Y159299D3*
X517619Y159299D3*
G54D15*
X483100Y174310D3*
G54D16*
X517619Y110404D3*
X448581Y110404D3*
G54D17*
X483100Y95393D3*
G54D18*
X255871Y277756D3*
X255871Y200743D3*
G54D19*
X566440Y274589D3*
X489427Y274589D3*
X972620Y135582D3*
X895607Y135582D3*
G54D20*
X901085Y90411D3*
X418511Y289194D3*
G54D21*
X954705Y90411D3*
X364891Y289194D3*
G54D22*
X87389Y180885D3*
G54D23*
X87389Y234505D3*
G54D24*
X0Y390000D2*
X0Y0D1*
X1140000Y390000D2*
X0Y390000D1*
X1140000Y0D2*
X1140000Y390000D1*
X0Y0D2*
X1140000Y0D1*
G54D25*
X164100Y183659D2*
X164100Y197388D1*
X164100Y182389D2*
X164100Y183659D1*
X164100Y180958D2*
X164100Y182389D1*
X162077Y178935D2*
X164100Y180958D1*
X139213Y162663D2*
X162077Y178935D1*
X134271Y159181D2*
X139213Y162663D1*
X771443Y199328D2*
X775544Y189659D1*
X756183Y223623D2*
X771443Y199328D1*
X753186Y226620D2*
X756183Y223623D1*
X751066Y226620D2*
X753186Y226620D1*
X749796Y226620D2*
X751066Y226620D1*
X748069Y238508D2*
X749796Y226620D1*
X656584Y197959D2*
X657000Y211688D1*
X656584Y196689D2*
X656584Y197959D1*
X656584Y181975D2*
X656584Y196689D1*
X910122Y188184D2*
X923851Y186000D1*
X908852Y188184D2*
X910122Y188184D1*
X907252Y188184D2*
X908852Y188184D1*
X904990Y190446D2*
X907252Y188184D1*
X892898Y210887D2*
X904990Y190446D1*
X870320Y267475D2*
X892898Y210887D1*
X928935Y258583D2*
X929369Y287668D1*
X926800Y241800D2*
X928935Y258583D1*
X668684Y271441D2*
X666500Y257712D1*
X668684Y272711D2*
X668684Y271441D1*
X668684Y274311D2*
X668684Y272711D1*
X671647Y286795D2*
X668684Y274311D1*
X161916Y229683D2*
X164100Y243412D1*
X161916Y228413D2*
X161916Y229683D1*
X161916Y227887D2*
X161916Y228413D1*
X161901Y226293D2*
X161916Y227887D1*
X158904Y223296D2*
X161901Y226293D1*
X154664Y223296D2*
X158904Y223296D1*
X149026Y223296D2*
X154664Y223296D1*
X134200Y225565D2*
X149026Y223296D1*
X136721Y296263D2*
X136715Y297990D1*
X136721Y294993D2*
X136721Y296263D1*
X136721Y283528D2*
X136721Y294993D1*
X175784Y253294D2*
X173600Y243412D1*
X177054Y253294D2*
X175784Y253294D1*
X179174Y253294D2*
X177054Y253294D1*
X201547Y263856D2*
X179174Y253294D1*
X95859Y258431D2*
X85500Y267600D1*
X98856Y255434D2*
X95859Y258431D1*
X122098Y220552D2*
X98856Y255434D1*
X129187Y213463D2*
X122098Y220552D1*
X149026Y207270D2*
X129187Y213463D1*
X151146Y207270D2*
X149026Y207270D1*
X152416Y207270D2*
X151146Y207270D1*
X154600Y197388D2*
X152416Y207270D1*
X85500Y294993D2*
X85500Y267600D1*
X85500Y296263D2*
X85500Y294993D1*
X90741Y297990D2*
X85500Y296263D1*
X983604Y178416D2*
X969875Y176500D1*
X984874Y178416D2*
X983604Y178416D1*
X1000279Y178416D2*
X984874Y178416D1*
X949759Y201074D2*
X955800Y215900D1*
X949759Y176436D2*
X949759Y201074D1*
X949759Y172196D2*
X949759Y176436D1*
X949848Y170963D2*
X949759Y172196D1*
X954648Y166164D2*
X949848Y170963D1*
X954648Y164081D2*
X954648Y166164D1*
X954648Y162811D2*
X954648Y164081D1*
X972620Y135582D2*
X954648Y162811D1*
X677663Y225417D2*
X676000Y211688D1*
X677663Y226687D2*
X677663Y225417D1*
X677663Y228807D2*
X677663Y226687D1*
X674666Y231804D2*
X677663Y228807D1*
X651426Y237596D2*
X674666Y231804D1*
X640908Y240994D2*
X651426Y237596D1*
X756183Y257633D2*
X791737Y212130D1*
X753186Y260630D2*
X756183Y257633D1*
X747192Y260630D2*
X753186Y260630D1*
X742952Y260630D2*
X747192Y260630D1*
X739955Y257633D2*
X742952Y260630D1*
X724495Y202932D2*
X739955Y257633D1*
X666500Y197959D2*
X666500Y211688D1*
X666500Y196689D2*
X666500Y197959D1*
X666500Y195258D2*
X666500Y196689D1*
X668523Y193235D2*
X666500Y195258D1*
X671696Y191572D2*
X668523Y193235D1*
X677334Y191572D2*
X671696Y191572D1*
X681574Y191572D2*
X677334Y191572D1*
X724495Y202932D2*
X681574Y191572D1*
X152416Y257141D2*
X154600Y243412D1*
X151146Y257141D2*
X152416Y257141D1*
X150620Y257141D2*
X151146Y257141D1*
X136300Y267600D2*
X150620Y257141D1*
X983604Y186000D2*
X969875Y186000D1*
X984874Y186000D2*
X983604Y186000D1*
X986305Y186000D2*
X984874Y186000D1*
X988328Y188023D2*
X986305Y186000D1*
X989624Y190078D2*
X988328Y188023D1*
X989991Y193837D2*
X989624Y190078D1*
X989991Y198077D2*
X989991Y193837D1*
X989991Y201074D2*
X989991Y198077D1*
X977600Y241800D2*
X989991Y201074D1*
X177054Y186084D2*
X185806Y186084D1*
X175784Y186084D2*
X177054Y186084D1*
X173600Y197388D2*
X175784Y186084D1*
X910122Y176019D2*
X923851Y176500D1*
X908852Y176019D2*
X910122Y176019D1*
X893338Y176019D2*
X908852Y176019D1*
X139213Y162663D2*
X137843Y158107D1*
X139213Y162663D2*
X134461Y162907D1*
X772402Y197068D2*
X777912Y192540D1*
X772402Y197068D2*
X771826Y189960D1*
X656584Y190023D2*
X659889Y183704D1*
X656584Y190023D2*
X653279Y183704D1*
X873567Y259336D2*
X867597Y263962D1*
X873567Y259336D2*
X874713Y266800D1*
X929249Y279621D2*
X926038Y285988D1*
X929249Y279621D2*
X932648Y285890D1*
X928066Y251753D2*
X931871Y244436D1*
X928066Y251753D2*
X922551Y245622D1*
X670690Y282762D2*
X669953Y286457D1*
X670690Y282762D2*
X673009Y285733D1*
X144118Y224047D2*
X136707Y220429D1*
X144118Y224047D2*
X138129Y229715D1*
X136721Y291576D2*
X140026Y285257D1*
X136721Y291576D2*
X133416Y285257D1*
X193623Y260115D2*
X197873Y266357D1*
X193623Y260115D2*
X201143Y259429D1*
X93013Y260950D2*
X84825Y261925D1*
X93013Y260950D2*
X91051Y268959D1*
X85500Y277633D2*
X90197Y270855D1*
X85500Y277633D2*
X80803Y270855D1*
X991516Y178416D2*
X998024Y182247D1*
X991516Y178416D2*
X998024Y174585D1*
X952014Y206609D2*
X950222Y214658D1*
X952014Y206609D2*
X958922Y211112D1*
X648566Y238520D2*
X641537Y237318D1*
X648566Y238520D2*
X643569Y243608D1*
X786782Y218472D2*
X793278Y215527D1*
X786782Y218472D2*
X788068Y211457D1*
X726684Y210677D2*
X728146Y203697D1*
X726684Y210677D2*
X721784Y205495D1*
X716715Y200873D2*
X721978Y205685D1*
X716715Y200873D2*
X723670Y199295D1*
X144402Y261682D2*
X136158Y261887D1*
X144402Y261682D2*
X141700Y269473D1*
X980520Y232201D2*
X974053Y237318D1*
X980520Y232201D2*
X983041Y240052D1*
X177758Y186084D2*
X184077Y189389D1*
X177758Y186084D2*
X184077Y182779D1*
X901386Y176019D2*
X895067Y172714D1*
X901386Y176019D2*
X895067Y179324D1*
X4320Y4320D2*
X1135680Y4320D1*
X1135680Y385680*
X4320Y385680*
X4320Y4320*
X4320Y4320*
X197434Y247175D2*
X195888Y247316D1*
X188325Y243746*
X188324Y228413*
X188322Y226161*
X186603Y222021*
X184980Y220400*
X186614Y218763*
X188326Y214619*
X188325Y202354*
X189042Y202354*
X195022Y199877*
X195218Y199681*
X216101Y190211*
X216102Y223743*
X216104Y225995*
X217823Y230135*
X220996Y233303*
X225140Y235015*
X284370Y235013*
X286622Y235011*
X290762Y233292*
X293930Y230119*
X295642Y225975*
X295641Y201097*
X297213Y200024*
X309179Y191849*
X309461Y191849*
X314104Y190605*
X315433Y189838*
X328915Y189796*
X330154Y190511*
X334797Y191755*
X339603Y191755*
X344246Y190511*
X348409Y188108*
X348555Y187962*
X386902Y180944*
X383784Y181779*
X379621Y184182*
X376222Y187581*
X373819Y191744*
X372575Y196387*
X372575Y201193*
X373819Y205836*
X376222Y209999*
X379621Y213398*
X383784Y215801*
X388427Y217045*
X393233Y217045*
X396891Y216065*
X473630Y226783*
X473630Y234820*
X464185Y234820*
X460043Y236536*
X456873Y239706*
X455157Y243848*
X455157Y251242*
X406580Y220502*
X405979Y220123*
X404743Y219482*
X402917Y218726*
X401443Y218115*
X398286Y217487*
X384968Y217488*
X383373Y217487*
X380215Y218115*
X377555Y219218*
X377109Y219402*
X376215Y219837*
X327151Y247516*
X326185Y248061*
X324419Y249403*
X313420Y260402*
X312291Y261530*
X310503Y264206*
X308357Y269390*
X307746Y270864*
X307118Y274021*
X307118Y302771*
X307117Y304366*
X307118Y306007*
X307745Y307524*
X309595Y311987*
X309894Y312708*
X310504Y314182*
X312293Y316859*
X324566Y329132*
X326689Y330663*
X364042Y349386*
X364296Y349513*
X364838Y349761*
X373907Y353518*
X374642Y353822*
X376165Y354285*
X449348Y368949*
X451780Y369433*
X452560Y369589*
X454144Y369745*
X474662Y369746*
X527134Y369746*
X527988Y369392*
X988352Y318480*
X989483Y318356*
X991715Y317785*
X998601Y314933*
X1000075Y314323*
X1002752Y312534*
X1015707Y299579*
X1016836Y298451*
X1018624Y295775*
X1021640Y288491*
X1021901Y287861*
X1022308Y286589*
X1044540Y190445*
X1044751Y189531*
X1044959Y187695*
X1044958Y170052*
X1044958Y169455*
X1044871Y168265*
X1034409Y97477*
X1034264Y96493*
X1033726Y94547*
X1031808Y89919*
X1031231Y88524*
X1029565Y85973*
X1006407Y61855*
X1006176Y61619*
X995956Y51399*
X994828Y50270*
X992152Y48482*
X986968Y46336*
X986022Y45945*
X984075Y45410*
X939050Y38865*
X938460Y38779*
X937298Y38696*
X865461Y38696*
X863866Y38695*
X862225Y38696*
X860708Y39323*
X856245Y41173*
X855524Y41472*
X854050Y42082*
X851373Y43871*
X839805Y55439*
X839362Y55919*
X836559Y59197*
X835912Y59953*
X834798Y61637*
X824256Y82835*
X823791Y83856*
X823299Y85044*
X822688Y86518*
X822060Y89675*
X822061Y102993*
X822062Y104388*
X822530Y107109*
X835976Y145274*
X835908Y145528*
X835908Y146788*
X643161Y92849*
X641981Y91669*
X637818Y89266*
X633175Y88022*
X629722Y88022*
X574182Y63454*
X572632Y61904*
X566390Y59318*
X559632Y59318*
X553390Y61904*
X548612Y66682*
X546026Y72924*
X546026Y74443*
X540815Y86127*
X499375Y86129*
X499374Y67389*
X499372Y65137*
X497653Y60997*
X494480Y57829*
X490336Y56117*
X478096Y56119*
X475844Y56121*
X471704Y57840*
X468536Y61013*
X466824Y65157*
X466825Y86127*
X423079Y86129*
X420827Y86131*
X416687Y87850*
X413519Y91023*
X411807Y95167*
X411807Y96827*
X367794Y96827*
X366068Y96112*
X359310Y96112*
X353068Y98698*
X352045Y99721*
X339506Y104445*
X334797Y104445*
X330154Y105689*
X325991Y108092*
X322592Y111491*
X322102Y112340*
X321666Y111585*
X318267Y108186*
X314104Y105783*
X309461Y104539*
X304655Y104539*
X300012Y105783*
X295849Y108186*
X295417Y108618*
X134155Y142578*
X129595Y141684*
X127474Y135411*
X127474Y132594*
X124888Y126352*
X120110Y121574*
X113868Y118988*
X112627Y118988*
X73933Y100702*
X72132Y98901*
X65890Y96315*
X59132Y96315*
X52890Y98901*
X48112Y103679*
X45526Y109921*
X45526Y116679*
X48112Y122921*
X52890Y127699*
X59132Y130285*
X60373Y130285*
X83508Y141218*
X74638Y141218*
X72386Y141220*
X68246Y142939*
X65078Y146112*
X63366Y150256*
X63368Y209282*
X63370Y211534*
X65089Y215674*
X68262Y218842*
X69767Y219464*
X69768Y230006*
X69673Y230045*
X66997Y231833*
X65869Y232962*
X59007Y239824*
X56750Y244000*
X56265Y246324*
X53741Y258413*
X53606Y259144*
X49130Y286858*
X48619Y288092*
X48619Y301894*
X48618Y306247*
X49246Y309405*
X50467Y312353*
X52255Y315029*
X53384Y316157*
X60699Y323475*
X66238Y325934*
X69279Y326085*
X176593Y331314*
X177385Y331333*
X190206Y331333*
X193363Y330704*
X194836Y330092*
X196289Y329490*
X197668Y328754*
X198331Y328314*
X223716Y311440*
X225140Y312028*
X284370Y312026*
X286622Y312024*
X290762Y310305*
X293930Y307132*
X295642Y302988*
X295640Y256998*
X295640Y252514*
X293924Y248372*
X290754Y245202*
X286612Y243486*
X227372Y243486*
X225120Y243488*
X220980Y245207*
X217812Y248380*
X216100Y252524*
X216100Y254607*
X215946Y254235*
X211168Y249457*
X204926Y246871*
X202992Y246871*
X202488Y246714*
X200767Y246871*
X198168Y246871*
X197434Y247175*
X44441Y72590D2*
X45220Y74471D1*
X46659Y75910*
X48540Y76689*
X381426Y76689*
X383307Y75910*
X384746Y74471*
X385525Y72590*
X385525Y29104*
X384746Y27223*
X383307Y25784*
X381426Y25005*
X48540Y25005*
X46659Y25784*
X45220Y27223*
X44441Y29104*
X44441Y72590*
X662733Y165248D2*
X662875Y164533D1*
X662874Y151215*
X662875Y149620*
X662247Y146462*
X661144Y143802*
X660534Y142328*
X658746Y139651*
X649327Y130232*
X648199Y129103*
X645523Y127315*
X645414Y127270*
X846178Y183453*
X831486Y192045*
X830097Y192045*
X825454Y193289*
X823499Y194418*
X791382Y195860*
X790586Y195860*
X791814Y192895*
X791814Y186423*
X789337Y180443*
X788535Y179641*
X788391Y179394*
X787123Y177750*
X786379Y177006*
X777324Y167949*
X774648Y166160*
X773174Y165549*
X770973Y164636*
X767815Y164008*
X766220Y164009*
X755002Y164009*
X754791Y164010*
X664000Y165186*
X663104Y165223*
X662733Y165248*
X662733Y165248*
X473213Y140026D2*
X423079Y140028D1*
X420827Y140030*
X416687Y141749*
X416178Y142183*
X414786Y142760*
X342431Y156003*
X339603Y155245*
X334797Y155245*
X330154Y156489*
X328825Y157256*
X315343Y157298*
X314104Y156583*
X312164Y156063*
X318148Y154033*
X319145Y153658*
X320333Y153166*
X321068Y152862*
X322472Y152112*
X339166Y140955*
X339603Y140955*
X344246Y139711*
X348409Y137308*
X350727Y134990*
X363754Y130082*
X366068Y130082*
X367794Y129367*
X413349Y129367*
X413525Y129793*
X416695Y132963*
X420837Y134679*
X468872Y134679*
X469797Y136613*
X471765Y138579*
X473213Y140026*
X473213Y140026*
X558291Y130946D2*
X556509Y129166D1*
X553568Y127638*
X554393Y125641*
X554392Y120707*
X554487Y120668*
X557163Y118880*
X558291Y117751*
X564532Y111508*
X566225Y109044*
X566827Y107691*
X571263Y97744*
X616378Y117700*
X619563Y120885*
X623726Y123288*
X628369Y124532*
X633175Y124532*
X634430Y124196*
X637210Y124974*
X624910Y124975*
X623687Y124974*
X621240Y125346*
X567441Y142174*
X565309Y137967*
X558291Y130946*
X558291Y130946*
X712206Y213742D2*
X713050Y214941D1*
X714068Y215586*
X715456Y217054*
X728326Y262593*
X729952Y265364*
X731088Y266500*
X732320Y267734*
X733800Y269215*
X733800Y272528*
X708408Y272528*
X709149Y272221*
X713927Y267443*
X716513Y261201*
X716513Y254443*
X713927Y248201*
X709149Y243423*
X702907Y240837*
X696149Y240837*
X695299Y241189*
X695031Y241199*
X692732Y242253*
X690724Y243085*
X690724Y242713*
X690722Y240461*
X689003Y236321*
X688380Y235699*
X690203Y231301*
X690202Y230188*
X690726Y228919*
X690725Y206966*
X710527Y212207*
X712206Y213742*
X712206Y213742*
X630050Y299595D2*
X632824Y295067D1*
X650083Y283475*
X651304Y283981*
X657380Y283981*
X657380Y285382*
X657167Y286450*
X657380Y287524*
X657380Y289633*
X659552Y294877*
X663565Y298890*
X668809Y301062*
X698211Y301062*
X564073Y317977*
X564920Y317130*
X566080Y315969*
X566709Y314453*
X566748Y314359*
X589440Y314358*
X591692Y314356*
X595832Y312637*
X599000Y309464*
X600198Y306564*
X606011Y306564*
X607295Y307305*
X611938Y308549*
X616744Y308549*
X621387Y307305*
X625550Y304902*
X627612Y302840*
X628424Y302250*
X628775Y301677*
X628949Y301503*
X630050Y299595*
X630050Y299595*
X882105Y204502D2*
X881860Y204917D1*
X881434Y205781*
X863783Y250021*
X862872Y247825*
X862262Y246351*
X860474Y243674*
X850492Y233692*
X849262Y232682*
X840459Y226784*
X843709Y224908*
X847108Y221509*
X847896Y220144*
X862834Y211408*
X863028Y211408*
X869270Y208822*
X874048Y204044*
X876634Y197802*
X876634Y191044*
X876310Y190262*
X889129Y191886*
X889482Y192032*
X882105Y204502*
X882105Y204502*
X867814Y284460D2*
X878752Y290038D1*
X879461Y290400*
X880969Y290990*
X897917Y295744*
X811080Y305347*
X844397Y292041*
X844587Y291964*
X845775Y291472*
X847249Y290862*
X849926Y289074*
X858913Y280088*
X860699Y281874*
X866941Y284460*
X867814Y284460*
X867814Y284460*
X415543Y175702D2*
X416695Y176854D1*
X420837Y178570*
X466825Y178570*
X466826Y192976*
X401457Y183846*
X397876Y181779*
X393233Y180535*
X389137Y180535*
X415543Y175702*
X415543Y175702*
X924033Y214410D2*
X926482Y211180D1*
X927437Y210225*
X936608Y210224*
X938362Y210224*
X938070Y211537*
X937545Y213497*
X937545Y213896*
X937440Y214368*
X937545Y214967*
X937545Y218303*
X938789Y222946*
X941192Y227109*
X944591Y230508*
X948754Y232911*
X953397Y234155*
X958203Y234155*
X961435Y233289*
X960589Y234754*
X959345Y239397*
X959345Y244203*
X960589Y248846*
X960928Y249433*
X943472Y249433*
X943811Y248846*
X943916Y248452*
X944147Y248009*
X944201Y247389*
X945055Y244203*
X945055Y239397*
X943811Y234754*
X941408Y230591*
X938009Y227192*
X933846Y224789*
X929203Y223545*
X924397Y223545*
X921182Y224406*
X921236Y224287*
X922027Y222885*
X922204Y222633*
X922401Y221747*
X922777Y220927*
X922813Y219953*
X923255Y218303*
X923255Y217907*
X924033Y214410*
X924033Y214410*
X793393Y256187D2*
X792916Y256460D1*
X771497Y258401*
X791320Y233031*
X815522Y249246*
X803748Y252815*
X800421Y252815*
X798665Y253543*
X797820Y253651*
X796295Y254525*
X794179Y255401*
X793393Y256187*
X793393Y256187*
X115945Y173939D2*
X115945Y177168D1*
X117189Y181811*
X119592Y185974*
X122991Y189373*
X127154Y191776*
X131797Y193020*
X136603Y193020*
X139875Y192143*
X139876Y196990*
X123989Y201950*
X121393Y203523*
X112793Y212123*
X112002Y213088*
X111662Y213599*
X105009Y223584*
X105009Y219463*
X106532Y218831*
X109700Y215658*
X111412Y211514*
X111411Y175800*
X115945Y173939*
X115945Y173939*
X938350Y110231D2*
X938350Y161774D1*
X929879Y161775*
X929877Y114432*
X931734Y114430*
X935874Y112711*
X938350Y110231*
X938350Y110231*
X506170Y219930D2*
X506911Y218646D1*
X508155Y214003*
X508155Y209197*
X506911Y204554*
X504508Y200391*
X501109Y196992*
X500054Y196383*
X499376Y195164*
X499375Y178570*
X508598Y178570*
X508598Y220698*
X509770Y223528*
X514153Y234818*
X506170Y234818*
X506170Y219930*
X506170Y219930*
X582239Y234818D2*
X563657Y234819D1*
X596875Y206866*
X585123Y223908*
X584295Y225431*
X583969Y226219*
X582866Y228879*
X582238Y232037*
X582239Y233632*
X582239Y234818*
X582239Y234818*
X179303Y171124D2*
X179286Y171117D1*
X171996Y171119*
X171203Y170327*
X170572Y169696*
X169769Y169018*
X169026Y168489*
X199240Y162126*
X180819Y170480*
X180475Y170511*
X179303Y171124*
X179303Y171124*
X591722Y168673D2*
X574146Y183464D1*
X572714Y174619*
X591722Y168673*
X591722Y168673*
X102024Y275490D2*
X102511Y274646D1*
X102557Y274474*
X102637Y274365*
X103179Y272153*
X103755Y270003*
X103755Y269802*
X104198Y267993*
X104197Y275056*
X104825Y278213*
X105436Y279687*
X106538Y282351*
X107455Y283723*
X98040Y283723*
X98040Y281553*
X99566Y279351*
X100108Y278809*
X100938Y277372*
X101925Y275947*
X102024Y275490*
X102024Y275490*
X642275Y208102D2*
X642097Y208280D1*
X631466Y214025*
X642274Y198351*
X642275Y208102*
X642275Y208102*
X608037Y273084D2*
X607295Y273283D1*
X606011Y274024*
X600711Y274024*
X600711Y269719*
X601066Y269866*
X603726Y270969*
X606884Y271597*
X608479Y271596*
X615577Y271597*
X612868Y272039*
X611938Y272039*
X610491Y272427*
X608601Y272735*
X608037Y273084*
X608037Y273084*
X287874Y166996D2*
X286612Y166473D1*
X281484Y166473*
X292186Y162842*
X291035Y164836*
X287874Y166996*
X287874Y166996*
X762336Y289625D2*
X762338Y289620D1*
X762336Y287883*
X768471Y287327*
X762336Y289777*
X762336Y289625*
X762336Y289625*
X861337Y119329D2*
X859656Y114558D1*
X861209Y114142*
X861337Y114068*
X861337Y119329*
X861337Y119329*
X541138Y189269D2*
X541138Y183191D1*
X541996Y188493*
X541138Y189269*
X541138Y189269*
X412741Y262909D2*
X416318Y265172D1*
X413535Y265172*
X412741Y262909*
X412741Y262909*
X973342Y210838D2*
X973178Y210225D1*
X974099Y210225*
X973629Y211770*
X973342Y210838*
G54D26*
X376158Y39522D2*
X376158Y42472D1*
X374358Y44572*
X374958Y45472*
X375508Y46572*
X375908Y47772*
X376158Y49172*
X376258Y50822*
X376158Y52572*
X375908Y54122*
X375508Y55472*
X374958Y56572*
X374308Y57572*
X373558Y58372*
X372758Y59072*
X371908Y59572*
X370958Y59922*
X369908Y60022*
X368908Y59922*
X367958Y59622*
X367108Y59122*
X366358Y58472*
X365658Y57672*
X365008Y56722*
X364508Y55622*
X364108Y54372*
X363858Y52872*
X363758Y51122*
X363758Y51122*
X363758Y51122*
X363858Y49472*
X364108Y48022*
X364558Y46772*
X365108Y45672*
X365758Y44672*
X366508Y43872*
X367308Y43222*
X368158Y42722*
X369058Y42372*
X370058Y42272*
X371058Y42372*
X372008Y42672*
X372858Y43172*
X373608Y43822*
X374358Y44572*
X376158Y42472*
X375708Y41822*
X375208Y41222*
X374658Y40722*
X374058Y40272*
X373458Y39872*
X372758Y39572*
X372058Y39322*
X371308Y39172*
X370508Y39072*
X369658Y39022*
X368058Y39222*
X366558Y39722*
X365158Y40472*
X363858Y41422*
X362708Y42572*
X361758Y43972*
X360908Y45522*
X360308Y47222*
X359858Y49072*
X359708Y51122*
X359858Y53122*
X360208Y54972*
X360808Y56722*
X361558Y58322*
X362508Y59722*
X363608Y60872*
X364908Y61872*
X366308Y62622*
X367808Y63072*
X369458Y63272*
X370258Y63222*
X371058Y63122*
X371808Y62872*
X372508Y62622*
X373158Y62322*
X373808Y61972*
X374358Y61572*
X374908Y61122*
X375408Y60622*
X375858Y60072*
X375858Y71572*
X379808Y71572*
X379808Y39522*
X376158Y39522*
X346208Y39522D2*
X346208Y62772D1*
X349758Y62772*
X349758Y59222*
X350308Y60122*
X350808Y60872*
X351308Y61472*
X351758Y61972*
X352258Y62372*
X352758Y62672*
X353208Y62922*
X353708Y63122*
X354208Y63222*
X354758Y63272*
X355158Y63272*
X355558Y63222*
X355958Y63172*
X356358Y63072*
X356808Y62972*
X357208Y62822*
X357608Y62672*
X358008Y62472*
X358408Y62272*
X358808Y62022*
X357408Y58422*
X357108Y58572*
X356858Y58722*
X356558Y58822*
X356258Y58922*
X356008Y59022*
X355708Y59122*
X355408Y59172*
X355108Y59172*
X354858Y59222*
X354558Y59222*
X354058Y59172*
X353608Y59072*
X353158Y58872*
X352708Y58672*
X352308Y58372*
X351958Y58072*
X351608Y57672*
X351258Y57272*
X351008Y56822*
X350808Y56272*
X350658Y55872*
X350558Y55422*
X350458Y54972*
X350408Y54522*
X350308Y54072*
X350258Y53622*
X350208Y53172*
X350158Y52672*
X350158Y52172*
X350158Y51672*
X350158Y39522*
X346208Y39522*
X336558Y42422D2*
X335708Y41722D1*
X334858Y41122*
X334008Y40672*
X332958Y43222*
X333608Y43622*
X334258Y44072*
X334808Y44572*
X335258Y45172*
X335658Y45822*
X335758Y46122*
X335858Y46422*
X335958Y46722*
X336058Y47072*
X336158Y47472*
X336208Y47872*
X336258Y48322*
X336258Y48772*
X336308Y49222*
X336308Y49722*
X336208Y51172*
X336208Y51172*
X335758Y50972*
X335258Y50822*
X334708Y50672*
X334108Y50522*
X333508Y50372*
X332858Y50222*
X332158Y50072*
X331408Y49922*
X330608Y49822*
X329758Y49672*
X328458Y49472*
X327458Y49222*
X326658Y48972*
X326058Y48672*
X325508Y48322*
X325058Y47872*
X324708Y47422*
X324458Y46922*
X324258Y46372*
X324208Y45772*
X324258Y45172*
X324458Y44622*
X324708Y44122*
X325058Y43672*
X325508Y43222*
X326058Y42872*
X326608Y42572*
X327308Y42322*
X328058Y42172*
X328958Y42122*
X329858Y42172*
X330658Y42322*
X331458Y42572*
X332208Y42822*
X332958Y43222*
X334008Y40672*
X333158Y40222*
X332358Y39872*
X331508Y39572*
X330658Y39322*
X329808Y39172*
X328908Y39072*
X328008Y39022*
X326558Y39122*
X325258Y39372*
X324108Y39772*
X323108Y40372*
X322258Y41022*
X321508Y41772*
X320858Y42622*
X320408Y43522*
X320108Y44572*
X320008Y45672*
X320108Y46672*
X320358Y47572*
X320758Y48422*
X321208Y49222*
X321808Y49972*
X322458Y50572*
X323158Y51122*
X323958Y51622*
X324808Y52022*
X325708Y52322*
X325958Y52372*
X326208Y52422*
X326508Y52522*
X326808Y52572*
X327158Y52622*
X327508Y52672*
X327908Y52722*
X328308Y52822*
X328758Y52872*
X329208Y52922*
X330158Y53022*
X331008Y53172*
X331858Y53272*
X332658Y53422*
X333358Y53522*
X334058Y53672*
X334708Y53822*
X335258Y53972*
X335808Y54122*
X336308Y54272*
X336308Y54422*
X336308Y54572*
X336308Y54722*
X336308Y54822*
X336308Y54972*
X336308Y55022*
X336308Y55122*
X336308Y55222*
X336308Y55272*
X336308Y55322*
X336308Y55772*
X336258Y56222*
X336208Y56622*
X336158Y57022*
X336058Y57372*
X335908Y57672*
X335758Y57972*
X335608Y58222*
X335408Y58472*
X335208Y58672*
X334858Y58922*
X334508Y59172*
X334158Y59372*
X333708Y59522*
X333308Y59672*
X332808Y59822*
X332308Y59922*
X331808Y59972*
X331258Y60022*
X330658Y60022*
X329608Y59972*
X328708Y59822*
X327908Y59622*
X327208Y59322*
X326608Y58972*
X326108Y58522*
X325608Y57972*
X325208Y57322*
X324858Y56522*
X324558Y55622*
X320708Y56122*
X321108Y57522*
X321658Y58672*
X322308Y59672*
X323158Y60572*
X324108Y61322*
X325208Y61972*
X326508Y62522*
X327908Y62922*
X329508Y63172*
X331208Y63272*
X332858Y63172*
X334308Y62972*
X335508Y62622*
X336608Y62222*
X337508Y61722*
X338258Y61172*
X338858Y60522*
X339358Y59822*
X339708Y59022*
X340008Y58122*
X340058Y57922*
X340108Y57672*
X340108Y57372*
X340158Y57072*
X340158Y56722*
X340158Y56372*
X340208Y55972*
X340208Y55522*
X340208Y55022*
X340208Y54522*
X340208Y49272*
X340208Y47272*
X340258Y45672*
X340308Y44372*
X340408Y43372*
X340508Y42522*
X340608Y41822*
X340758Y41222*
X340908Y40622*
X341158Y40072*
X341408Y39522*
X337358Y39522*
X337258Y39772*
X337108Y40022*
X337008Y40322*
X336908Y40572*
X336858Y40872*
X336758Y41172*
X336708Y41472*
X336658Y41772*
X336608Y42072*
X336558Y42422*
X336558Y42422*
X295008Y51172D2*
X295058Y52422D1*
X295158Y53572*
X295308Y54722*
X295608Y55772*
X295908Y56772*
X296308Y57672*
X296758Y58522*
X297308Y59322*
X297908Y60022*
X298608Y60672*
X299208Y61172*
X299858Y61622*
X300508Y62022*
X301208Y62322*
X301908Y62622*
X302658Y62872*
X303408Y63022*
X304208Y63172*
X305058Y63222*
X305908Y63272*
X307758Y63122*
X309408Y62672*
X310908Y61922*
X312258Y61022*
X313508Y59872*
X314558Y58572*
X315458Y57072*
X316158Y55422*
X316608Y53572*
X316758Y51472*
X316608Y49022*
X316158Y46922*
X315508Y45172*
X314608Y43672*
X313558Y42372*
X312308Y41222*
X310858Y40322*
X309308Y39622*
X307658Y39172*
X305908Y39022*
X305908Y42272*
X307008Y42372*
X308058Y42722*
X309008Y43222*
X309858Y43872*
X310608Y44722*
X311308Y45672*
X311908Y46822*
X312308Y48072*
X312608Y49572*
X312708Y51272*
X312608Y52922*
X312308Y54322*
X311908Y55572*
X311308Y56672*
X310608Y57622*
X309858Y58422*
X308958Y59072*
X308008Y59572*
X307008Y59922*
X305908Y60022*
X304758Y59922*
X303708Y59572*
X302808Y59072*
X301908Y58422*
X301158Y57622*
X300458Y56622*
X299858Y55522*
X299458Y54272*
X299158Y52822*
X299058Y51172*
X299058Y51172*
X299058Y51172*
X299158Y49472*
X299458Y48022*
X299858Y46772*
X300458Y45672*
X301158Y44672*
X301908Y43872*
X302808Y43222*
X303708Y42722*
X304758Y42372*
X305908Y42272*
X305908Y39022*
X304058Y39172*
X302358Y39622*
X300858Y40322*
X299458Y41272*
X298258Y42422*
X297158Y43722*
X296258Y45272*
X295608Y46972*
X295158Y48922*
X295008Y51172*
X295008Y51172*
X275208Y39522D2*
X271558Y39522D1*
X271558Y71572*
X275508Y71572*
X275508Y60122*
X276008Y60722*
X276558Y61272*
X277108Y61722*
X277708Y62122*
X278308Y62472*
X278958Y62772*
X279658Y62972*
X280358Y63122*
X281108Y63222*
X281858Y63272*
X283508Y63072*
X285058Y62622*
X286508Y61872*
X287758Y60922*
X288858Y59822*
X289808Y58472*
X290558Y56922*
X291108Y55272*
X291508Y53422*
X291658Y51472*
X291508Y49222*
X291108Y47272*
X290408Y45472*
X289558Y43922*
X288508Y42572*
X287358Y41372*
X286108Y40422*
X284708Y39672*
X283258Y39172*
X281658Y39022*
X280858Y39072*
X280058Y39172*
X279358Y39322*
X278658Y39572*
X278008Y39872*
X277358Y40272*
X276758Y40722*
X276208Y41222*
X275708Y41822*
X275208Y42472*
X277058Y44222*
X277458Y43772*
X277908Y43372*
X278408Y43022*
X278958Y42772*
X279458Y42522*
X280058Y42372*
X280658Y42322*
X281258Y42272*
X282258Y42372*
X283208Y42722*
X284058Y43222*
X284858Y43922*
X285608Y44722*
X286258Y45672*
X286808Y46772*
X287258Y48072*
X287508Y49522*
X287608Y51172*
X287508Y52872*
X287258Y54322*
X286858Y55622*
X286308Y56722*
X285708Y57672*
X284958Y58472*
X284208Y59122*
X283358Y59622*
X282458Y59922*
X281458Y60022*
X280458Y59922*
X279508Y59572*
X278658Y59072*
X277858Y58372*
X277108Y57572*
X276458Y56622*
X275908Y55522*
X275458Y54322*
X275208Y52922*
X275108Y51322*
X275108Y51322*
X275108Y51322*
X275108Y50522*
X275158Y49722*
X275208Y49022*
X275308Y48322*
X275408Y47722*
X275508Y47122*
X275658Y46622*
X275858Y46122*
X276058Y45722*
X276258Y45322*
X276608Y44722*
X277058Y44222*
X275208Y42472*
X275208Y39522*
X255308Y43022D2*
X255808Y39572D1*
X255458Y39522*
X255158Y39422*
X254858Y39372*
X254558Y39322*
X254258Y39322*
X253958Y39272*
X253658Y39272*
X253358Y39222*
X253058Y39222*
X252808Y39222*
X251658Y39322*
X250708Y39522*
X249858Y39872*
X249208Y40272*
X248608Y40772*
X248158Y41422*
X247808Y42172*
X247558Y43122*
X247408Y44472*
X247358Y46322*
X247358Y59722*
X244458Y59722*
X244458Y62772*
X247358Y62772*
X247358Y68522*
X251308Y70872*
X251308Y62772*
X255308Y62772*
X255308Y59722*
X251308Y59722*
X251308Y46122*
X251308Y45222*
X251408Y44622*
X251508Y44172*
X251658Y43822*
X251858Y43572*
X252058Y43322*
X252358Y43172*
X252658Y43022*
X253058Y42922*
X253558Y42872*
X253708Y42872*
X253858Y42872*
X254008Y42872*
X254158Y42872*
X254358Y42922*
X254508Y42922*
X254708Y42922*
X254908Y42972*
X255108Y42972*
X255308Y43022*
X255308Y43022*
X221758Y39522D2*
X221758Y71572D1*
X225708Y71572*
X225708Y60072*
X226258Y60672*
X226858Y61222*
X227508Y61722*
X228158Y62122*
X228808Y62472*
X229508Y62772*
X230258Y62972*
X231008Y63122*
X231808Y63222*
X232608Y63272*
X234108Y63172*
X235408Y62822*
X236608Y62322*
X237658Y61672*
X238558Y60872*
X239258Y59972*
X239858Y58872*
X240258Y57622*
X240508Y56072*
X240608Y54222*
X240608Y39522*
X236658Y39522*
X236658Y54222*
X236608Y55322*
X236408Y56272*
X236158Y57072*
X235758Y57772*
X235308Y58372*
X234758Y58872*
X234158Y59322*
X233458Y59622*
X232708Y59822*
X231808Y59872*
X230808Y59772*
X229808Y59472*
X228908Y59022*
X228108Y58472*
X227358Y57772*
X226808Y56972*
X226308Y56072*
X226008Y54972*
X225758Y53722*
X225708Y52222*
X225708Y39522*
X221758Y39522*
X196158Y37622D2*
X199958Y37122D1*
X200008Y36772*
X200108Y36422*
X200158Y36122*
X200258Y35822*
X200408Y35572*
X200558Y35272*
X200708Y35072*
X200858Y34822*
X201058Y34672*
X201258Y34472*
X201558Y34272*
X201908Y34072*
X202258Y33922*
X202608Y33772*
X203008Y33622*
X203458Y33522*
X203858Y33472*
X204308Y33422*
X204808Y33372*
X205308Y33372*
X206358Y33422*
X207258Y33572*
X208058Y33822*
X208758Y34172*
X209408Y34572*
X210008Y35022*
X210508Y35522*
X210958Y36122*
X211308Y36772*
X211558Y37522*
X211608Y37772*
X211658Y38122*
X211708Y38472*
X211758Y38922*
X211808Y39372*
X211808Y39922*
X211808Y40522*
X211858Y41122*
X211858Y41822*
X211858Y42572*
X209508Y44322*
X210208Y45072*
X210858Y45972*
X211408Y47072*
X211858Y48322*
X212108Y49722*
X212208Y51422*
X212108Y53022*
X211858Y54422*
X211408Y55672*
X210858Y56722*
X210158Y57672*
X209408Y58472*
X208608Y59122*
X207708Y59622*
X206758Y59922*
X205708Y60022*
X204708Y59922*
X203758Y59622*
X202908Y59122*
X202058Y58472*
X201358Y57672*
X200708Y56772*
X200158Y55722*
X199758Y54522*
X199508Y53172*
X199408Y51572*
X199408Y51572*
X199408Y51572*
X199508Y49872*
X199758Y48372*
X200158Y47122*
X200708Y46022*
X201358Y45072*
X202058Y44322*
X202858Y43672*
X203758Y43172*
X204708Y42872*
X205758Y42772*
X206808Y42872*
X207808Y43172*
X208658Y43672*
X209508Y44322*
X211858Y42572*
X211308Y41972*
X210758Y41472*
X210158Y41022*
X209558Y40622*
X208958Y40272*
X208258Y40022*
X207608Y39772*
X206908Y39622*
X206158Y39572*
X205408Y39522*
X203608Y39672*
X201958Y40172*
X200558Y40972*
X199308Y41972*
X198208Y43222*
X197258Y44572*
X196458Y46072*
X195858Y47672*
X195508Y49372*
X195358Y51272*
X195508Y53222*
X195908Y55022*
X196508Y56722*
X197258Y58272*
X198208Y59672*
X199308Y60872*
X200608Y61822*
X202058Y62572*
X203658Y63072*
X205408Y63272*
X206208Y63222*
X207008Y63122*
X207758Y62972*
X208458Y62722*
X209158Y62422*
X209808Y62072*
X210458Y61622*
X211058Y61122*
X211658Y60572*
X212208Y59922*
X212208Y62772*
X215808Y62772*
X215808Y42672*
X215658Y39822*
X215308Y37572*
X214758Y35822*
X214008Y34372*
X213058Y33172*
X211908Y32172*
X210558Y31372*
X209008Y30722*
X207308Y30272*
X205308Y30122*
X203758Y30222*
X202308Y30472*
X201008Y30922*
X199858Y31472*
X198808Y32172*
X197908Y32972*
X197158Y33922*
X196558Y34972*
X196258Y36222*
X196158Y37622*
X196158Y37622*
X186908Y39522D2*
X186908Y62772D1*
X190858Y62772*
X190858Y39522*
X186908Y39522*
X186908Y67072D2*
X186908Y71572D1*
X190858Y71572*
X190858Y67072*
X186908Y67072*
X176858Y39522D2*
X176858Y71572D1*
X180808Y71572*
X180808Y39522*
X176858Y39522*
X127208Y39522D2*
X127208Y62772D1*
X130758Y62772*
X130758Y59522*
X131258Y60172*
X131758Y60722*
X132358Y61222*
X133008Y61722*
X133708Y62122*
X134458Y62522*
X135208Y62822*
X136058Y63072*
X136908Y63222*
X137808Y63272*
X138808Y63222*
X139658Y63072*
X140508Y62822*
X141258Y62522*
X141908Y62122*
X142558Y61672*
X143108Y61172*
X143608Y60572*
X144058Y59922*
X144358Y59222*
X144908Y59972*
X145558Y60672*
X146158Y61272*
X146858Y61822*
X147558Y62272*
X148258Y62622*
X149058Y62922*
X149858Y63122*
X150708Y63222*
X151558Y63272*
X152858Y63172*
X154008Y62922*
X155058Y62472*
X155958Y61872*
X156758Y61172*
X157408Y60322*
X157958Y59372*
X158408Y58272*
X158658Y56972*
X158758Y55472*
X158758Y39522*
X154808Y39522*
X154808Y54172*
X154758Y55422*
X154608Y56422*
X154408Y57222*
X154158Y57872*
X153758Y58422*
X153308Y58872*
X152758Y59272*
X152108Y59572*
X151408Y59822*
X150658Y59872*
X149708Y59772*
X148858Y59572*
X148058Y59172*
X147358Y58672*
X146708Y58072*
X146108Y57372*
X145658Y56522*
X145258Y55522*
X145058Y54372*
X144958Y53022*
X144958Y39522*
X141008Y39522*
X141008Y54622*
X140958Y55622*
X140808Y56472*
X140608Y57222*
X140308Y57872*
X139958Y58422*
X139508Y58922*
X139008Y59322*
X138408Y59622*
X137708Y59822*
X136908Y59872*
X135958Y59772*
X135008Y59472*
X134208Y59022*
X133408Y58472*
X132758Y57772*
X132208Y56922*
X131758Y55922*
X131458Y54722*
X131208Y53322*
X131158Y51572*
X131158Y39522*
X127208Y39522*
X102308Y30622D2*
X102308Y62772D1*
X105908Y62772*
X105908Y59722*
X107958Y57622*
X107308Y56622*
X106708Y55472*
X106308Y54172*
X106008Y52672*
X105908Y51022*
X105908Y51022*
X105908Y51022*
X106008Y49322*
X106258Y47872*
X106658Y46622*
X107208Y45572*
X107858Y44622*
X108558Y43822*
X109358Y43172*
X110208Y42672*
X111108Y42372*
X112108Y42272*
X113108Y42372*
X114058Y42722*
X114958Y43222*
X115758Y43872*
X116458Y44722*
X117158Y45672*
X117708Y46772*
X118108Y48072*
X118358Y49572*
X118458Y51322*
X118358Y52972*
X118108Y54422*
X117708Y55722*
X117158Y56822*
X116508Y57772*
X115808Y58572*
X115008Y59222*
X114158Y59722*
X113258Y60072*
X112258Y60172*
X111308Y60072*
X110358Y59722*
X109508Y59172*
X108708Y58472*
X107958Y57622*
X105908Y59722*
X106408Y60372*
X107008Y60972*
X107558Y61472*
X108158Y61922*
X108808Y62272*
X109508Y62622*
X110208Y62872*
X110958Y63122*
X111808Y63222*
X112658Y63272*
X114358Y63072*
X115908Y62572*
X117308Y61822*
X118608Y60872*
X119708Y59672*
X120658Y58322*
X121408Y56772*
X122008Y55072*
X122358Y53222*
X122508Y51322*
X122358Y49272*
X121908Y47372*
X121308Y45622*
X120458Y44022*
X119458Y42622*
X118258Y41422*
X116908Y40422*
X115458Y39672*
X113958Y39222*
X112358Y39022*
X111608Y39072*
X110858Y39172*
X110158Y39372*
X109508Y39622*
X108858Y39922*
X108258Y40272*
X107708Y40622*
X107158Y41022*
X106658Y41472*
X106258Y41972*
X106258Y30622*
X102308Y30622*
X77408Y30622D2*
X77408Y62772D1*
X81008Y62772*
X81008Y59722*
X83058Y57622*
X82408Y56622*
X81808Y55472*
X81408Y54172*
X81108Y52672*
X81008Y51022*
X81008Y51022*
X81008Y51022*
X81108Y49322*
X81358Y47872*
X81758Y46622*
X82308Y45572*
X82958Y44622*
X83658Y43822*
X84458Y43172*
X85308Y42672*
X86208Y42372*
X87208Y42272*
X88208Y42372*
X89158Y42722*
X90058Y43222*
X90858Y43872*
X91558Y44722*
X92258Y45672*
X92808Y46772*
X93208Y48072*
X93458Y49572*
X93558Y51322*
X93458Y52972*
X93208Y54422*
X92808Y55722*
X92258Y56822*
X91608Y57772*
X90908Y58572*
X90108Y59222*
X89258Y59722*
X88358Y60072*
X87358Y60172*
X86408Y60072*
X85458Y59722*
X84608Y59172*
X83808Y58472*
X83058Y57622*
X81008Y59722*
X81508Y60372*
X82108Y60972*
X82658Y61472*
X83258Y61922*
X83908Y62272*
X84608Y62622*
X85308Y62872*
X86058Y63122*
X86908Y63222*
X87758Y63272*
X89458Y63072*
X91008Y62572*
X92408Y61822*
X93708Y60872*
X94808Y59672*
X95758Y58322*
X96508Y56772*
X97108Y55072*
X97458Y53222*
X97608Y51322*
X97458Y49272*
X97008Y47372*
X96408Y45622*
X95558Y44022*
X94558Y42622*
X93358Y41422*
X92008Y40422*
X90558Y39672*
X89058Y39222*
X87458Y39022*
X86708Y39072*
X85958Y39172*
X85258Y39372*
X84608Y39622*
X83958Y39922*
X83358Y40272*
X82808Y40622*
X82258Y41022*
X81758Y41472*
X81358Y41972*
X81358Y30622*
X77408Y30622*
X52508Y39522D2*
X52508Y71572D1*
X56458Y71572*
X56458Y60072*
X57008Y60672*
X57608Y61222*
X58258Y61722*
X58908Y62122*
X59558Y62472*
X60258Y62772*
X61008Y62972*
X61758Y63122*
X62558Y63222*
X63358Y63272*
X64858Y63172*
X66158Y62822*
X67358Y62322*
X68408Y61672*
X69308Y60872*
X70008Y59972*
X70608Y58872*
X71008Y57622*
X71258Y56072*
X71358Y54222*
X71358Y39522*
X67408Y39522*
X67408Y54222*
X67358Y55322*
X67158Y56272*
X66908Y57072*
X66508Y57772*
X66058Y58372*
X65508Y58872*
X64908Y59322*
X64208Y59622*
X63458Y59822*
X62558Y59872*
X61558Y59772*
X60558Y59472*
X59658Y59022*
X58858Y58472*
X58108Y57772*
X57558Y56972*
X57058Y56072*
X56758Y54972*
X56508Y53722*
X56458Y52222*
X56458Y39522*
X52508Y39522*
G54D27*
X656543Y219843D2*
X657000Y211688D1*
X653546Y219843D2*
X656543Y219843D1*
X650711Y219843D2*
X653546Y219843D1*
X614341Y239494D2*
X650711Y219843D1*
X745072Y286795D2*
X671647Y286795D1*
X748069Y286795D2*
X745072Y286795D1*
X748069Y284482D2*
X748069Y286795D1*
X748069Y274321D2*
X748069Y284482D1*
X751066Y274321D2*
X748069Y274321D1*
X753901Y274321D2*
X751066Y274321D1*
X803800Y269800D2*
X753901Y274321D1*
X957873Y195957D2*
X969875Y195500D1*
X957873Y198954D2*
X957873Y195957D1*
X957873Y200195D2*
X957873Y198954D1*
X955800Y215900D2*
X957873Y200195D1*
X676457Y257822D2*
X676000Y257712D1*
X679454Y257822D2*
X676457Y257822D1*
X699528Y257822D2*
X679454Y257822D1*
X656543Y265867D2*
X657000Y257712D1*
X653546Y265867D2*
X656543Y265867D1*
X650711Y265867D2*
X653546Y265867D1*
X614341Y290294D2*
X650711Y265867D1*
X905000Y263700D2*
X906813Y263700D1*
X905000Y260703D2*
X905000Y263700D1*
X905000Y215900D2*
X905000Y260703D1*
X915696Y195957D2*
X923851Y195500D1*
X915696Y198954D2*
X915696Y195957D1*
X915696Y201789D2*
X915696Y198954D1*
X905000Y215900D2*
X915696Y201789D1*
X968551Y269694D2*
X978200Y273900D1*
X966795Y267938D2*
X968551Y269694D1*
X966795Y266697D2*
X966795Y267938D1*
X966795Y263700D2*
X966795Y266697D1*
X952787Y263700D2*
X966795Y263700D1*
X622762Y234944D2*
X614080Y235514D1*
X622762Y234944D2*
X617526Y241894D1*
X797303Y270389D2*
X802895Y272363D1*
X797303Y270389D2*
X802449Y267441D1*
X957052Y206411D2*
X952423Y213779D1*
X957052Y206411D2*
X959611Y214727D1*
X693005Y257822D2*
X698396Y260293D1*
X693005Y257822D2*
X698396Y255351D1*
X622286Y284958D2*
X613699Y286359D1*
X622286Y284958D2*
X617741Y292377D1*
X905000Y225471D2*
X908625Y217562D1*
X905000Y225471D2*
X901375Y217562D1*
X910782Y208272D2*
X903115Y212386D1*
X910782Y208272D2*
X908893Y216766D1*
X972220Y271293D2*
X976175Y275712D1*
X972220Y271293D2*
X978149Y271182D1*
G54D28*
X62511Y113300D2*
X110489Y135973D1*
X110489Y135973D2*
X117205Y155834D1*
X103805Y161335D2*
X117205Y155834D1*
X100140Y161335D2*
X103805Y161335D1*
X95140Y161335D2*
X100140Y161335D1*
X87389Y180885D2*
X95140Y161335D1*
X307058Y122794D2*
X134271Y159181D1*
X134200Y174765D2*
X134271Y159181D1*
X117205Y155834D2*
X134271Y159181D1*
X664211Y181455D2*
X656584Y181975D1*
X755002Y180279D2*
X664211Y181455D1*
X766220Y180279D2*
X755002Y180279D1*
X766941Y180578D2*
X766220Y180279D1*
X774874Y188511D2*
X766941Y180578D1*
X775544Y189659D2*
X774874Y188511D1*
X854163Y96764D2*
X854163Y97131D1*
X855065Y94587D2*
X854163Y96764D1*
X863189Y76100D2*
X855065Y94587D1*
X872688Y97131D2*
X854163Y97131D1*
X877688Y97131D2*
X872688Y97131D1*
X901085Y90411D2*
X877688Y97131D1*
X863841Y73995D2*
X863189Y76100D1*
X869023Y68813D2*
X863841Y73995D1*
X925817Y68813D2*
X869023Y68813D1*
X933147Y68813D2*
X925817Y68813D1*
X977179Y75214D2*
X933147Y68813D1*
X982361Y80396D2*
X977179Y75214D1*
X1004467Y103418D2*
X982361Y80396D1*
X1014841Y172807D2*
X1004467Y103418D1*
X1014841Y184025D2*
X1014841Y172807D1*
X992762Y279509D2*
X1014841Y184025D1*
X992463Y280230D2*
X992762Y279509D1*
X984530Y288163D2*
X992463Y280230D1*
X983809Y288462D2*
X984530Y288163D1*
X972591Y288462D2*
X983809Y288462D1*
X929369Y287668D2*
X972591Y288462D1*
X886143Y275544D2*
X870320Y267475D1*
X929369Y287668D2*
X886143Y275544D1*
X832500Y261100D2*
X803800Y269800D1*
X130438Y283432D2*
X136721Y283528D1*
X129250Y282940D2*
X130438Y283432D1*
X120960Y274650D2*
X129250Y282940D1*
X120468Y273462D2*
X120960Y274650D1*
X120468Y261738D2*
X120468Y273462D1*
X134200Y225565D2*
X120468Y261738D1*
X157385Y286146D2*
X178812Y297758D1*
X136721Y283528D2*
X157385Y286146D1*
X178812Y297758D2*
X182994Y300501D1*
X963662Y112083D2*
X972620Y135582D1*
X963662Y107083D2*
X963662Y112083D1*
X963662Y96761D2*
X963662Y107083D1*
X963662Y91761D2*
X963662Y96761D1*
X954705Y90411D2*
X963662Y91761D1*
X551968Y147633D2*
X554400Y163300D1*
X546786Y142451D2*
X551968Y147633D1*
X488452Y132256D2*
X546786Y142451D1*
X483270Y127074D2*
X488452Y132256D1*
X483100Y125470D2*
X483270Y127074D1*
X483100Y123397D2*
X483100Y125470D1*
X483100Y118397D2*
X483100Y123397D1*
X483100Y95393D2*
X483100Y118397D1*
X540700Y211600D2*
X559471Y194626D1*
X621391Y254834D2*
X640908Y240994D1*
X620203Y255326D2*
X621391Y254834D1*
X608479Y255326D2*
X620203Y255326D1*
X607291Y254834D2*
X608479Y255326D1*
X599001Y246544D2*
X607291Y254834D1*
X598509Y245356D2*
X599001Y246544D1*
X598509Y233632D2*
X598509Y245356D1*
X599001Y232444D2*
X598509Y233632D1*
X646112Y164127D2*
X599001Y232444D1*
X646604Y162939D2*
X646112Y164127D1*
X646604Y151215D2*
X646604Y162939D1*
X646112Y150027D2*
X646604Y151215D1*
X637822Y141737D2*
X646112Y150027D1*
X636634Y141245D2*
X637822Y141737D1*
X624910Y141245D2*
X636634Y141245D1*
X554400Y163300D2*
X624910Y141245D1*
X554400Y163300D2*
X559471Y194626D1*
X552287Y298088D2*
X566440Y274589D1*
X552287Y303088D2*
X552287Y298088D1*
X552287Y306753D2*
X552287Y303088D1*
X547105Y311935D2*
X552287Y306753D1*
X523364Y324245D2*
X547105Y311935D1*
X519654Y325782D2*
X523364Y324245D1*
X473654Y325782D2*
X519654Y325782D1*
X459200Y325782D2*
X473654Y325782D1*
X386449Y310792D2*
X459200Y325782D1*
X381267Y305610D2*
X386449Y310792D1*
X378700Y297615D2*
X381267Y305610D1*
X378700Y295544D2*
X378700Y297615D1*
X378700Y290544D2*
X378700Y295544D1*
X364891Y289194D2*
X378700Y290544D1*
X584440Y290294D2*
X566440Y274589D1*
X589440Y290294D2*
X584440Y290294D1*
X614341Y290294D2*
X589440Y290294D1*
X859649Y194423D2*
X832500Y210300D1*
X398961Y272778D2*
X390830Y249590D1*
X398961Y276443D2*
X398961Y272778D1*
X398961Y281443D2*
X398961Y276443D1*
X418511Y289194D2*
X398961Y281443D1*
X791737Y212130D2*
X832500Y210300D1*
X342417Y273997D2*
X390830Y249590D1*
X337235Y279179D2*
X342417Y273997D1*
X337235Y286509D2*
X337235Y279179D1*
X337235Y299209D2*
X337235Y286509D1*
X342417Y304391D2*
X337235Y299209D1*
X379177Y323102D2*
X342417Y304391D1*
X382887Y324639D2*
X379177Y323102D1*
X456446Y339629D2*
X382887Y324639D1*
X476408Y339629D2*
X456446Y339629D1*
X522408Y339629D2*
X476408Y339629D1*
X754731Y310334D2*
X522408Y339629D1*
X838362Y276932D2*
X754731Y310334D1*
X839550Y276440D2*
X838362Y276932D1*
X847840Y268150D2*
X839550Y276440D1*
X848332Y266962D2*
X847840Y268150D1*
X848332Y255238D2*
X848332Y266962D1*
X847840Y254050D2*
X848332Y255238D1*
X839550Y245760D2*
X847840Y254050D1*
X796574Y216967D2*
X839550Y245760D1*
X791737Y212130D2*
X796574Y216967D1*
X724495Y202932D2*
X760611Y194841D1*
X195938Y278418D2*
X136300Y267600D1*
X207156Y278418D2*
X195938Y278418D1*
X220145Y278062D2*
X207156Y278418D1*
X227372Y278062D2*
X220145Y278062D1*
X232372Y278062D2*
X227372Y278062D1*
X255871Y277756D2*
X232372Y278062D1*
X232372Y291909D2*
X255871Y277756D1*
X227372Y291909D2*
X232372Y291909D1*
X223707Y291909D2*
X227372Y291909D1*
X189324Y314764D2*
X223707Y291909D1*
X188603Y315063D2*
X189324Y314764D1*
X177385Y315063D2*
X188603Y315063D1*
X70071Y309834D2*
X177385Y315063D1*
X64889Y304652D2*
X70071Y309834D1*
X64889Y298658D2*
X64889Y304652D1*
X64889Y291328D2*
X64889Y298658D1*
X69668Y261738D2*
X64889Y291328D1*
X72192Y249649D2*
X69668Y261738D1*
X77374Y244467D2*
X72192Y249649D1*
X81039Y244467D2*
X77374Y244467D1*
X86039Y244467D2*
X81039Y244467D1*
X87389Y234505D2*
X86039Y244467D1*
X288035Y186590D2*
X307058Y173594D1*
X284370Y186590D2*
X288035Y186590D1*
X279370Y186590D2*
X284370Y186590D1*
X255871Y200743D2*
X279370Y186590D1*
X307058Y173594D2*
X337200Y173500D1*
X428079Y158453D2*
X448581Y159299D1*
X423079Y158453D2*
X428079Y158453D1*
X419414Y158453D2*
X423079Y158453D1*
X337200Y173500D2*
X419414Y158453D1*
X978639Y257038D2*
X977600Y241800D1*
X978639Y264368D2*
X978639Y257038D1*
X978639Y270362D2*
X978639Y264368D1*
X978200Y273900D2*
X978639Y270362D1*
X362689Y113097D2*
X337200Y122700D1*
X423079Y113097D2*
X362689Y113097D1*
X428079Y113097D2*
X423079Y113097D1*
X448581Y110404D2*
X428079Y113097D1*
X223707Y168896D2*
X185806Y186084D1*
X312920Y138626D2*
X223707Y168896D1*
X314108Y138134D2*
X312920Y138626D1*
X337200Y122700D2*
X314108Y138134D1*
X482549Y211600D2*
X489900Y211600D1*
X390830Y198790D2*
X482549Y211600D1*
X489900Y251090D2*
X489427Y274589D1*
X489900Y246090D2*
X489900Y251090D1*
X489900Y211600D2*
X489900Y246090D1*
X483104Y192310D2*
X483100Y174310D1*
X483104Y197310D2*
X483104Y192310D1*
X483104Y199381D2*
X483104Y197310D1*
X489900Y211600D2*
X483104Y199381D1*
X872607Y147931D2*
X854163Y147931D1*
X877607Y147931D2*
X872607Y147931D1*
X895607Y135582D2*
X877607Y147931D1*
X521274Y306753D2*
X531450Y234416D1*
X516092Y311935D2*
X521274Y306753D1*
X470092Y311935D2*
X516092Y311935D1*
X462762Y311935D2*
X470092Y311935D1*
X457580Y306753D2*
X462762Y311935D1*
X455755Y272778D2*
X457580Y306753D1*
X450573Y267596D2*
X455755Y272778D1*
X397880Y234250D2*
X450573Y267596D1*
X396692Y233758D2*
X397880Y234250D1*
X384968Y233758D2*
X396692Y233758D1*
X383780Y234250D2*
X384968Y233758D1*
X335145Y261687D2*
X383780Y234250D1*
X324925Y271907D2*
X335145Y261687D1*
X323388Y275617D2*
X324925Y271907D1*
X323388Y290071D2*
X323388Y275617D1*
X323388Y302771D2*
X323388Y290071D1*
X324925Y306481D2*
X323388Y302771D1*
X335145Y316701D2*
X324925Y306481D1*
X371333Y334841D2*
X335145Y316701D1*
X380133Y338486D2*
X371333Y334841D1*
X452524Y352992D2*
X380133Y338486D1*
X454956Y353476D2*
X452524Y352992D1*
X477898Y353476D2*
X454956Y353476D1*
X523898Y353476D2*
X477898Y353476D1*
X986564Y302309D2*
X523898Y353476D1*
X992374Y299902D2*
X986564Y302309D1*
X1004202Y288074D2*
X992374Y299902D1*
X1006609Y282264D2*
X1004202Y288074D1*
X1028688Y186780D2*
X1006609Y282264D1*
X1028688Y170052D2*
X1028688Y186780D1*
X1018314Y99856D2*
X1028688Y170052D1*
X1016777Y96146D2*
X1018314Y99856D1*
X994671Y73124D2*
X1016777Y96146D1*
X984451Y62904D2*
X994671Y73124D1*
X980741Y61367D2*
X984451Y62904D1*
X936709Y54966D2*
X980741Y61367D1*
X922255Y54966D2*
X936709Y54966D1*
X865461Y54966D2*
X922255Y54966D1*
X861751Y56503D2*
X865461Y54966D1*
X851531Y66723D2*
X861751Y56503D1*
X848926Y69770D2*
X851531Y66723D1*
X838823Y90081D2*
X848926Y69770D1*
X838331Y91269D2*
X838823Y90081D1*
X838331Y102993D2*
X838331Y91269D1*
X854163Y147931D2*
X838331Y102993D1*
X547750Y226940D2*
X531450Y234416D1*
X630772Y157077D2*
X547750Y226940D1*
X524868Y162300D2*
X517619Y159299D1*
X524868Y167300D2*
X524868Y162300D1*
X524868Y217462D2*
X524868Y167300D1*
X531450Y234416D2*
X524868Y217462D1*
X563011Y76303D2*
X630772Y106277D1*
X551968Y101064D2*
X563011Y76303D1*
X546786Y106246D2*
X551968Y101064D1*
X543121Y106246D2*
X546786Y106246D1*
X538121Y106246D2*
X543121Y106246D1*
X517619Y110404D2*
X538121Y106246D1*
X868942Y172928D2*
X893338Y176019D1*
X630772Y106277D2*
X868942Y172928D1*
G54D29*
X110489Y135973D3*
X870320Y267475D3*
X760611Y194841D3*
X201547Y263856D3*
X1000279Y178416D3*
X699528Y257822D3*
X803800Y269800D3*
X978200Y273900D3*
X182994Y300501D3*
X62511Y113300D3*
X362689Y113097D3*
X863189Y76100D3*
X563011Y76303D3*
X859649Y194423D3*
X559471Y194626D3*
G54D30*
X832500Y210300D3*
X832500Y261100D3*
X926800Y241800D3*
X977600Y241800D3*
X134200Y174765D3*
X134200Y225565D3*
X540700Y211600D3*
X489900Y211600D3*
X630772Y106277D3*
X630772Y157077D3*
X337200Y122700D3*
X337200Y173500D3*
X614341Y290294D3*
X614341Y239494D3*
X955800Y215900D3*
X905000Y215900D3*
X136300Y267600D3*
X85500Y267600D3*
X390830Y249590D3*
X390830Y198790D3*
X854163Y97131D3*
X854163Y147931D3*
X307058Y122794D3*
X307058Y173594D3*
M02*
